<?xml version="1.0" standalone="no"?>
<!DOCTYPE svg PUBLIC "-//W3C//DTD SVG 1.1//EN" "http://www.w3.org/Graphics/SVG/1.1/DTD/svg11.dtd" >
<svg xmlns="http://www.w3.org/2000/svg">
<metadata>
This is a custom SVG webfont generated by Font Squirrel.
Designer    : Yamaoka Yasuhiro
Foundry     : YOFonts
Foundry URL : www.yoworks.com
</metadata>
<defs>
<font id="webfontrQlPRsQQ" horiz-adv-x="533" >
<font-face units-per-em="1000" ascent="800" descent="-200" />
<missing-glyph horiz-adv-x="307" />
<glyph unicode=" "  horiz-adv-x="307" />
<glyph unicode="&#x09;" horiz-adv-x="307" />
<glyph unicode="&#xa0;" horiz-adv-x="307" />
<glyph unicode="!" horiz-adv-x="307" d="M153 110q25 0 42.5 -17.5t17.5 -42.5t-17.5 -42.5t-42.5 -17.5t-42.5 17.5t-17.5 42.5t17.5 42.5t42.5 17.5zM184 200h-61v400h61v-400z" />
<glyph unicode="&#x22;" horiz-adv-x="467" d="M213 617q0 -56 -17.5 -104t-47.5 -93h-55q22 32 37.5 66t22.5 71q-25 0 -42.5 17.5t-17.5 42.5t17.5 42.5t42.5 17.5t42.5 -17.5t17.5 -42.5zM373 617q0 -56 -17.5 -104t-47.5 -93h-55q22 32 37.5 66t22.5 71q-25 0 -42.5 17.5t-17.5 42.5t17.5 42.5t42.5 17.5 t42.5 -17.5t17.5 -42.5z" />
<glyph unicode="#" horiz-adv-x="480" d="M366 440l-41 -147h80v-53h-94l-30 -107h-46l29 107h-118l-29 -107h-47l29 107h-79v53h94l41 147h-80v53h94l30 107h46l-29 -107h118l29 107h47l-29 -107h79v-53h-94zM201 440l-40 -147h118l40 147h-118z" />
<glyph unicode="$" horiz-adv-x="504" d="M464 162q0 -31 -11.5 -59.5t-34.5 -52t-57.5 -39t-81.5 -19.5v-125h-53v123q-56 2 -99 11.5t-87 25.5v51q47 -17 94.5 -27t111.5 -10q40 0 70 10t50 26.5t29.5 38t9.5 44.5q0 55 -38.5 85t-114.5 30q-103 0 -154 47.5t-51 122.5q0 30 11.5 57.5t34 50t56 37t77.5 19.5 v124h53v-123q52 -2 93.5 -11t84.5 -26v-51q-47 19 -93 28t-106 9q-38 0 -66.5 -9.5t-48 -25.5t-29 -36t-9.5 -41q0 -54 36 -84.5t111 -30.5q105 0 158.5 -46t53.5 -124z" />
<glyph unicode="%" horiz-adv-x="667" d="M187 610q66 0 101 -40.5t35 -100.5q0 -61 -35 -101.5t-101 -40.5q-67 0 -102 40.5t-35 101.5q0 60 35 100.5t102 40.5zM123 0h-60l480 600h60zM480 273q67 0 102 -40.5t35 -101.5q0 -60 -35 -100.5t-102 -40.5t-102 40.5t-35 100.5q0 61 35 101.5t102 40.5zM187 567 q-44 0 -65.5 -27t-21.5 -71q0 -45 21.5 -72t65.5 -27q43 0 64.5 27t21.5 72q0 44 -21.5 71t-64.5 27zM480 230q-44 0 -65.5 -27t-21.5 -72q0 -44 21.5 -71t65.5 -27t65.5 27t21.5 71q0 45 -21.5 72t-65.5 27z" />
<glyph unicode="&#x26;" horiz-adv-x="566" d="M559 0q-16 -4 -31 -4q-19 0 -38 6q-33 13 -72 49q-29 -29 -73 -45t-106 -16q-53 0 -92 13t-64.5 35.5t-37.5 52t-12 62.5q0 31 10.5 56t28 45t39.5 36.5t46 31.5q-34 37 -55 73.5t-21 77.5q0 29 10.5 54t28.5 43.5t43.5 29t55.5 10.5q61 0 98 -35.5t37 -94.5 q0 -29 -10.5 -52t-28 -42.5t-39.5 -35.5l-47 -33l182 -188q21 46 21 118v13h53v-13q0 -46 -8.5 -85.5t-27.5 -71.5q33 -31 59 -39q15 -4 28 -4q12 0 23 3v-50zM302 480q0 42 -23 63.5t-60 21.5q-38 0 -62 -24.5t-24 -67.5q0 -33 17 -62t49 -63q21 13 39.5 26.5t32.5 29.5 t22.5 34.5t8.5 41.5zM187 290q-39 -27 -68 -59t-29 -78q0 -59 42.5 -88t106.5 -29q97 0 144 50z" />
<glyph unicode="'" horiz-adv-x="307" d="M213 617q0 -56 -17.5 -104t-47.5 -93h-55q22 32 37.5 66t22.5 71q-25 0 -42.5 17.5t-17.5 42.5t17.5 42.5t42.5 17.5t42.5 -17.5t17.5 -42.5z" />
<glyph unicode="(" horiz-adv-x="420" d="M393 -277q-64 0 -123 34.5t-104 100t-72 160t-27 215.5t27 215.5t72 160t104 100t123 34.5v-48q-52 0 -101 -32.5t-86.5 -92.5t-60 -145.5t-22.5 -191.5t22.5 -191t60 -145t86.5 -92.5t101 -32.5v-49z" />
<glyph unicode=")" horiz-adv-x="420" d="M353 233q0 -121 -27 -215.5t-72 -160t-104 -100t-123 -34.5v49q52 0 101 32.5t86.5 92.5t60 145t22.5 191t-22.5 191.5t-60 145.5t-86.5 92.5t-101 32.5v48q64 0 123 -34.5t104 -100t72 -160t27 -215.5z" />
<glyph unicode="*" horiz-adv-x="480" d="M273 433l184 -90l-30 -52l-171 114l14 -205h-60l14 205l-171 -114l-30 52l184 90l-184 91l30 52l171 -114l-14 205h60l-14 -205l171 114l30 -52z" />
<glyph unicode="+" horiz-adv-x="480" d="M264 243v-163h-48v163h-163v48h163v162h48v-162h163v-48h-163z" />
<glyph unicode="," horiz-adv-x="307" d="M213 50q0 -55 -17.5 -103.5t-47.5 -93.5h-55q22 32 37.5 66t22.5 71q-25 0 -42.5 17.5t-17.5 42.5t17.5 42.5t42.5 17.5t42.5 -17.5t17.5 -42.5z" />
<glyph unicode="-" horiz-adv-x="480" d="M53 243v48h374v-48h-374z" />
<glyph unicode="." horiz-adv-x="307" d="M153 110q25 0 42.5 -17.5t17.5 -42.5t-17.5 -42.5t-42.5 -17.5t-42.5 17.5t-17.5 42.5t17.5 42.5t42.5 17.5z" />
<glyph unicode="/" horiz-adv-x="500" d="M-9 -267h-56l500 1000h57z" />
<glyph unicode="0" d="M480 300q0 -78 -17.5 -136t-46.5 -97t-67.5 -58t-81.5 -19t-82 19t-68 58t-46.5 97t-17.5 136t17.5 136t46.5 97t68 58t82 19t81.5 -19t67.5 -58t46.5 -97t17.5 -136zM423 300q0 126 -43.5 192.5t-112.5 66.5t-112.5 -66.5t-43.5 -192.5t43.5 -192.5t112.5 -66.5 t112.5 66.5t43.5 192.5z" />
<glyph unicode="1" d="M340 0h-55v517q-38 -35 -87 -66t-118 -58v55q72 28 124.5 64.5t105.5 87.5h30v-600z" />
<glyph unicode="2" d="M52 0v49q0 66 26 103.5t64.5 59.5t84 35.5t84 32t64.5 49t26 85.5q0 66 -41 105.5t-115 39.5q-41 0 -84.5 -6.5t-78.5 -17.5v52q35 11 78.5 17t84.5 6q51 0 91 -15t67 -41.5t41.5 -62.5t14.5 -77q0 -49 -15 -82t-40 -55.5t-56.5 -37t-63.5 -26.5l-64 -24 q-32 -12 -57 -29.5t-40 -43.5t-15 -66h365v-50h-421z" />
<glyph unicode="3" d="M448 109q0 -38 -15 -72t-43 -59.5t-67.5 -40t-87.5 -14.5q-41 0 -84.5 6.5t-79.5 17.5v51q36 -11 79.5 -17t84.5 -6q74 0 115 38t41 96q0 59 -41 96.5t-115 37.5h-94v52h94q74 0 115 36.5t41 95.5q0 58 -41 95t-115 37q-41 0 -81.5 -6.5t-75.5 -17.5v52q35 11 75.5 17 t81.5 6q48 0 87.5 -14.5t67.5 -39t43 -58t15 -71.5q0 -26 -8 -50.5t-23.5 -45.5t-38 -37t-51.5 -25q28 -6 50 -22t38 -38.5t24.5 -48.5t8.5 -51z" />
<glyph unicode="4" d="M375 122v-122h-53v122h-265v51q0 63 16.5 127.5t48 127.5t75.5 123.5t100 115.5h67q-57 -56 -104 -116.5t-80 -123.5t-51 -127t-18 -127h211v294h53v-294h115v-51h-115z" />
<glyph unicode="5" d="M460 119q0 -41 -14.5 -77t-41.5 -62.5t-66.5 -41.5t-90.5 -15q-41 0 -84.5 6.5t-79.5 17.5v51q36 -11 79.5 -17t84.5 -6q73 0 114.5 39.5t41.5 104.5q0 66 -41.5 105.5t-114.5 39.5q-33 0 -68.5 -4t-67.5 -12v352h339v-50h-284v-244q18 5 39.5 7t41.5 2q51 0 90.5 -15 t66.5 -41.5t41.5 -62t14.5 -77.5z" />
<glyph unicode="6" d="M480 173q0 -38 -15 -71.5t-43 -58.5t-67.5 -39t-87.5 -14q-49 0 -88.5 14t-67.5 39t-43 58.5t-15 71.5q0 63 17 127.5t48 127.5t75.5 123.5t99.5 115.5h68q-90 -88 -150.5 -177t-88.5 -185q29 24 70 38t95 14q41 0 76 -14.5t61 -40t41 -59t15 -70.5zM423 173 q0 59 -41 95.5t-115 36.5q-75 0 -115.5 -36.5t-40.5 -95.5q0 -58 40.5 -95t115.5 -37q74 0 115 37t41 95z" />
<glyph unicode="7" d="M493 575q-59 -59 -105 -134.5t-78.5 -159.5t-49.5 -173.5t-17 -174.5h-56q0 85 16.5 173t45.5 169t69 152t87 123h-348v50h436v-25z" />
<glyph unicode="8" d="M480 179q0 -38 -15 -72.5t-43 -60.5t-67.5 -41t-87.5 -15q-49 0 -88.5 15t-67.5 41t-43 60.5t-15 72.5q0 25 8.5 51.5t24 49.5t38 39.5t50.5 22.5q-54 19 -84 61.5t-30 93.5q0 35 14.5 67.5t41 57.5t65 40t86.5 15t86 -15t64.5 -40t41 -57.5t14.5 -67.5q0 -51 -30 -93.5 t-84 -61.5q28 -6 50 -22.5t38 -39.5t24.5 -49.5t8.5 -51.5zM416 497q0 25 -9 48t-28 41t-47 28.5t-65 10.5q-38 0 -66 -10.5t-46.5 -28.5t-28 -41t-9.5 -48t9.5 -48.5t28 -41.5t46.5 -28.5t66 -10.5q37 0 65 10.5t47 28.5t28 41.5t9 48.5zM423 179q0 29 -10.5 54.5t-30.5 44 t-49 29t-66 10.5t-66 -10.5t-49 -29t-30.5 -44t-10.5 -54.5t10.5 -54t30.5 -44t49 -29.5t66 -10.5t66 10.5t49 29.5t30.5 44t10.5 54z" />
<glyph unicode="9" d="M480 427q0 -63 -17 -127.5t-48 -127.5t-75.5 -123.5t-99.5 -115.5h-67q90 88 150 177t88 185q-28 -24 -69 -38t-95 -14q-41 0 -76.5 14.5t-61.5 40t-41 58.5t-15 71t15 71.5t43 58t67.5 39t88.5 14.5q48 0 87.5 -14.5t67.5 -39t43 -58t15 -71.5zM423 427q0 58 -41 95 t-115 37q-75 0 -115.5 -37t-40.5 -95q0 -59 40.5 -95.5t115.5 -36.5q74 0 115 36.5t41 95.5z" />
<glyph unicode=":" horiz-adv-x="307" d="M153 110q25 0 42.5 -17.5t17.5 -42.5t-17.5 -42.5t-42.5 -17.5t-42.5 17.5t-17.5 42.5t17.5 42.5t42.5 17.5zM153 477q25 0 42.5 -17.5t17.5 -42.5t-17.5 -42.5t-42.5 -17.5t-42.5 17.5t-17.5 42.5t17.5 42.5t42.5 17.5z" />
<glyph unicode=";" horiz-adv-x="307" d="M153 477q25 0 42.5 -17.5t17.5 -42.5t-17.5 -42.5t-42.5 -17.5t-42.5 17.5t-17.5 42.5t17.5 42.5t42.5 17.5zM213 50q0 -55 -17.5 -103.5t-47.5 -93.5h-55q22 32 37.5 66t22.5 71q-25 0 -42.5 17.5t-17.5 42.5t17.5 42.5t42.5 17.5t42.5 -17.5t17.5 -42.5z" />
<glyph unicode="&#x3c;" horiz-adv-x="413" d="M282 0l-202 233l202 234h68l-202 -234l202 -233h-68z" />
<glyph unicode="=" horiz-adv-x="480" d="M53 163v48h374v-48h-374zM53 323v48h374v-48h-374z" />
<glyph unicode="&#x3e;" horiz-adv-x="400" d="M135 0h-68l201 233l-201 234h68l201 -234z" />
<glyph unicode="?" horiz-adv-x="407" d="M173 110q25 0 42.5 -17.5t17.5 -42.5t-17.5 -42.5t-42.5 -17.5t-42.5 17.5t-17.5 42.5t17.5 42.5t42.5 17.5zM367 460q0 -30 -12 -52t-30.5 -40.5t-40 -35.5t-40 -36t-30.5 -42t-12 -54h-57q0 39 12 66.5t30.5 48t39.5 37.5l39 32q19 15 31 33t12 43q0 49 -33 74t-103 25 q-27 0 -61 -6t-65 -16v52q31 9 65 15t61 6q93 0 143.5 -41t50.5 -109z" />
<glyph unicode="@" horiz-adv-x="813" d="M766 360q0 -57 -13.5 -99t-36.5 -69t-53 -40.5t-64 -13.5q-19 0 -35.5 7t-26.5 20q-26 -12 -58.5 -19.5t-67.5 -7.5q-36 0 -66.5 11.5t-52 32.5t-34 51t-12.5 67t12.5 67t34 51t52 32.5t66.5 11.5q44 0 81.5 -7t69.5 -16v-223q0 -31 39 -31q22 0 43.5 10t37.5 31.5 t26 54.5t10 79q0 59 -21 108.5t-60.5 85.5t-96.5 56.5t-129 20.5q-73 0 -131.5 -25t-99.5 -69.5t-63 -105t-22 -131.5t22 -132t63 -105t99.5 -69t131.5 -25q63 0 111 10t95 27v-46q-47 -17 -95 -27t-111 -10q-84 0 -151 27.5t-114.5 77.5t-73 119.5t-25.5 152.5t25.5 152.5 t73 119.5t114.5 77.5t151 27.5q81 0 147 -24t112 -66.5t71 -100.5t25 -126zM411 418q-51 0 -83 -30t-32 -88t32 -88t83 -30q29 0 57.5 5t45.5 12v206q-19 5 -46.5 9t-56.5 4z" />
<glyph unicode="A" horiz-adv-x="515" d="M463 0l-65 167h-281l-65 -167h-65l241 600h59l241 -600h-65zM257 530l-121 -312h242z" />
<glyph unicode="B" horiz-adv-x="543" d="M487 164q0 -35 -11.5 -64.5t-34 -52t-55 -35t-75.5 -12.5h-218v600h218q36 0 67 -11.5t53.5 -32.5t35.5 -50.5t13 -65.5q0 -42 -22.5 -78.5t-64.5 -56.5q41 -17 67.5 -56.5t26.5 -84.5zM423 440q0 54 -29 83.5t-83 29.5h-164v-225h164q54 0 83 29t29 83zM430 164 q0 56 -32 86.5t-87 30.5h-164v-234h164q55 0 87 30.5t32 86.5z" />
<glyph unicode="C" horiz-adv-x="539" d="M499 17q-40 -12 -83.5 -19.5t-78.5 -7.5q-71 0 -126 21.5t-93 61.5t-58 97.5t-20 129.5t20 129.5t58 97.5t93 61.5t126 21.5q35 0 78.5 -7.5t83.5 -19.5v-52q-40 12 -83.5 19.5t-78.5 7.5q-115 0 -176.5 -65.5t-61.5 -192.5t61.5 -192.5t176.5 -65.5q35 0 78.5 7.5 t83.5 19.5v-52z" />
<glyph unicode="D" horiz-adv-x="624" d="M312 600q60 0 110 -19t86 -56.5t56 -93.5t20 -131t-20 -131.5t-56 -94t-86 -56t-110 -18.5h-219v600h219zM525 300q0 126 -57.5 188.5t-155.5 62.5h-163v-502h163q98 0 155.5 62.5t57.5 188.5z" />
<glyph unicode="E" d="M93 0v600h374v-49h-318v-222h318v-49h-318v-231h318v-49h-374z" />
<glyph unicode="F" horiz-adv-x="507" d="M149 279v-279h-56v600h374v-50h-318v-221h318v-50h-318z" />
<glyph unicode="G" horiz-adv-x="579" d="M512 17q-40 -12 -84 -19.5t-84 -7.5q-72 0 -128.5 21.5t-95.5 61.5t-59.5 97.5t-20.5 129.5t20.5 129.5t59.5 97.5t95.5 61.5t128.5 21.5q40 0 84 -7.5t84 -19.5v-52q-40 12 -84 19.5t-84 7.5q-120 0 -182.5 -65.5t-62.5 -192.5t62.5 -192.5t182.5 -65.5q26 0 55 3.5 t58 9.5v205h55v-243z" />
<glyph unicode="H" horiz-adv-x="635" d="M487 0v276h-338v-276h-56v600h56v-267h338v267h55v-600h-55z" />
<glyph unicode="I" horiz-adv-x="244" d="M151 0h-58v600h58v-600z" />
<glyph unicode="J" horiz-adv-x="244" d="M151 -123q0 -74 -39.5 -114t-122.5 -40q-11 0 -25 2.5t-25 5.5v50q11 -3 25 -5.5t25 -2.5q59 0 81.5 25.5t22.5 78.5v723h58v-723z" />
<glyph unicode="K" horiz-adv-x="491" d="M428 0l-190 261l-89 -118v-143h-56v600h56v-374l278 374h66l-223 -295l228 -305h-70z" />
<glyph unicode="L" horiz-adv-x="493" d="M93 0v600h57v-549h317v-51h-374z" />
<glyph unicode="M" horiz-adv-x="717" d="M605 0l-50 521l-180 -250h-33l-180 250l-50 -521h-55l60 600h50l192 -264l191 264h51l60 -600h-56z" />
<glyph unicode="N" horiz-adv-x="635" d="M487 0l-338 501v-501h-56v600h56l338 -501v501h55v-600h-55z" />
<glyph unicode="O" horiz-adv-x="624" d="M584 300q0 -75 -20 -133t-56 -97t-86 -59.5t-110 -20.5t-110 20.5t-86 59.5t-56 97t-20 133t20 133t56 97t86 59.5t110 20.5t110 -20.5t86 -59.5t56 -97t20 -133zM525 300q0 127 -57 192.5t-156 65.5t-156 -65.5t-57 -192.5t57 -192.5t156 -65.5t156 65.5t57 192.5z" />
<glyph unicode="P" horiz-adv-x="507" d="M487 433q0 -81 -48.5 -123.5t-129.5 -42.5h-160v-267h-56v600h216q81 0 129.5 -42.5t48.5 -124.5zM149 550v-233h160q57 0 89 30t32 86t-32 86.5t-89 30.5h-160z" />
<glyph unicode="Q" horiz-adv-x="624" d="M657 -269q-11 -3 -25 -5.5t-25 -2.5q-48 0 -82 14.5t-60 49.5l-153 203q-60 0 -110 20.5t-86 59.5t-56 97t-20 133t20 133t56 97t86 59.5t110 20.5t110 -20.5t86 -59.5t56 -97t20 -133q0 -65 -15 -117t-42 -90t-65.5 -62.5t-86.5 -34.5l136 -181q17 -22 39 -32t57 -10 q11 0 25 2.5t25 5.5v-50zM525 300q0 127 -57 192.5t-156 65.5t-156 -65.5t-57 -192.5t57 -192.5t156 -65.5t156 65.5t57 192.5z" />
<glyph unicode="R" horiz-adv-x="543" d="M444 0l-201 267h-94v-267h-56v600h216q81 0 129.5 -42.5t48.5 -124.5q0 -81 -48.5 -123.5t-129.5 -42.5l201 -267h-66zM149 550v-233h160q57 0 89 30t32 86t-32 86.5t-89 30.5h-160z" />
<glyph unicode="S" horiz-adv-x="504" d="M464 162q0 -33 -13.5 -64t-40.5 -55t-68 -38.5t-96 -14.5q-64 0 -111.5 10t-94.5 27v51q47 -17 94.5 -27t111.5 -10q40 0 70 10t50 26.5t29.5 38t9.5 44.5q0 55 -38.5 85t-114.5 30q-103 0 -154 47.5t-51 122.5q0 33 13.5 62.5t40 52.5t66 36.5t91.5 13.5q60 0 106 -9 t93 -28v-51q-47 19 -93 28t-106 9q-38 0 -66.5 -9.5t-48 -25.5t-29 -36t-9.5 -41q0 -54 36 -84.5t111 -30.5q105 0 158.5 -46t53.5 -124z" />
<glyph unicode="T" horiz-adv-x="530" d="M293 549v-549h-56v549h-210v51h476v-51h-210z" />
<glyph unicode="U" horiz-adv-x="617" d="M534 233q0 -58 -16.5 -103t-46.5 -76t-71.5 -47.5t-90.5 -16.5q-50 0 -91.5 16.5t-71.5 47.5t-46.5 76t-16.5 103v367h57v-367q0 -47 12.5 -82.5t35 -59.5t53.5 -36.5t68 -12.5t67.5 12.5t53 36.5t35 59.5t12.5 82.5v367h57v-367z" />
<glyph unicode="V" horiz-adv-x="515" d="M287 0h-59l-241 600h65l205 -527l206 527h65z" />
<glyph unicode="W" horiz-adv-x="997" d="M769 0h-59l-212 526l-211 -526h-59l-241 600h65l205 -527l212 527h59l211 -527l206 527h65z" />
<glyph unicode="X" horiz-adv-x="509" d="M446 0l-191 264l-192 -264h-70l227 304l-221 296h70l186 -257l185 257h71l-224 -296l229 -304h-70z" />
<glyph unicode="Y" horiz-adv-x="469" d="M263 288v-288h-57v288l-233 312h70l192 -264l192 264h69z" />
<glyph unicode="Z" horiz-adv-x="564" d="M511 600v-25l-384 -527l390 1v-49h-470v25l384 526h-378v49h458z" />
<glyph unicode="[" horiz-adv-x="467" d="M153 -267v1000h267v-51h-210v-898h210v-51h-267z" />
<glyph unicode="\" horiz-adv-x="500" d="M509 -267l-501 1000h57l500 -1000h-56z" />
<glyph unicode="]" horiz-adv-x="467" d="M47 -267v51h209v898h-209v51h266v-1000h-266z" />
<glyph unicode="^" horiz-adv-x="241" d="M180 533l-59 146l-60 -146h-54l87 200h54l86 -200h-54z" />
<glyph unicode="_" horiz-adv-x="480" d="M53 0v48h374v-48h-374z" />
<glyph unicode="`" horiz-adv-x="241" d="M94 533l-87 200h54l87 -200h-54z" />
<glyph unicode="a" horiz-adv-x="522" d="M489 0q-13 -4 -29 -7t-33 -3q-15 0 -30.5 6.5t-25.5 19.5q-29 -12 -61.5 -19t-67.5 -7q-97 0 -146 41.5t-49 105.5q0 55 40 91.5t123 36.5h144v42q0 62 -32 91t-100 29q-27 0 -61 -6t-66 -16v50q32 10 66 16t61 6q91 0 139 -43t48 -127v-233q0 -34 33 -34q13 0 24.5 3 t22.5 7v-50zM354 217h-144q-57 0 -82 -22t-25 -58q0 -45 34.5 -71.5t104.5 -26.5q31 0 59 6t53 16v156z" />
<glyph unicode="b" horiz-adv-x="520" d="M473 233q0 -59 -15.5 -104.5t-43.5 -76t-67 -46.5t-87 -16q-19 0 -41 2t-44 6t-43 9t-39 10v716h55v-273q25 8 55.5 12.5t56.5 4.5q48 0 87 -16t67 -47t43.5 -76.5t15.5 -104.5zM417 233q0 96 -43 145t-114 49q-28 0 -56 -4t-56 -12v-355q28 -8 56 -12t56 -4q71 0 114 49 t43 144z" />
<glyph unicode="c" horiz-adv-x="453" d="M407 11q-32 -9 -66 -15t-61 -6q-109 0 -171 62.5t-62 180.5q0 119 62 181.5t171 62.5q27 0 61 -6t66 -16v-50q-32 10 -66 16t-61 6q-85 0 -131 -49t-46 -145q0 -95 46 -144t131 -49q27 0 61 6t66 15v-50z" />
<glyph unicode="d" horiz-adv-x="540" d="M507 0q-13 -4 -29 -7t-33 -3q-15 0 -30.5 6.5t-25.5 19.5q-29 -12 -61.5 -19t-67.5 -7q-48 0 -87 16t-67 46.5t-43.5 76t-15.5 104.5t15.5 104.5t43.5 76.5t67 47t87 16q26 0 56.5 -4.5t55.5 -12.5v273h55v-659q0 -34 33 -34q13 0 24.5 3t22.5 7v-50zM372 411 q-28 8 -56 12t-56 4q-71 0 -114 -49t-43 -145q0 -95 43 -144t114 -49q31 0 59 5.5t53 15.5v350z" />
<glyph unicode="e" horiz-adv-x="517" d="M470 217h-366q4 -93 55 -135t134 -42q32 0 71.5 6.5t68.5 16.5v-50q-29 -10 -68.5 -16.5t-71.5 -6.5q-56 0 -101.5 15t-77.5 45.5t-49.5 76t-17.5 106.5q0 59 15.5 104.5t43.5 76.5t67 47t87 16q96 0 153 -62.5t57 -181.5v-16zM415 265q-8 80 -51 121t-104 41 q-65 0 -106 -41t-49 -121h310z" />
<glyph unicode="f" horiz-adv-x="369" d="M285 743q11 0 25 -2t25 -6v-50q-11 4 -25 6t-25 2q-60 0 -83.5 -25t-23.5 -78v-123h157v-49h-157v-418h-55v418h-100v49h100v123q0 74 39.5 113.5t122.5 39.5z" />
<glyph unicode="g" horiz-adv-x="493" d="M433 313q0 -51 -33 -94t-94 -60q-36 -10 -50.5 -24.5t-14.5 -34.5t14.5 -34.5t50.5 -24.5q61 -17 94 -60t33 -94q0 -32 -13 -62t-38 -52.5t-60.5 -36t-81.5 -13.5t-82 13.5t-60.5 36t-37.5 52.5t-13 62q0 30 11 57.5t32.5 49.5t53 36.5t71.5 18.5q-12 8 -20 21.5t-8 29.5 t8 29.5t20 21.5q-40 4 -71.5 18.5t-53 36.5t-32.5 49.5t-11 57.5q0 32 13 62t37.5 52.5t60.5 36t82 13.5q45 0 97.5 -8t95.5 -19v-137zM379 411q-26 6 -65 11t-74 5q-66 0 -102.5 -33t-36.5 -81q1 -48 37 -80.5t102 -32.5t102.5 32.5t36.5 80.5v98zM379 -113q-1 48 -37 80.5 t-102 32.5t-102.5 -32.5t-36.5 -80.5q1 -49 37 -81.5t102 -32.5t102.5 33t36.5 81z" />
<glyph unicode="h" horiz-adv-x="540" d="M392 0v307q0 62 -32 91t-100 29q-28 0 -56 -4t-56 -12v-411h-55v733h55v-273q25 8 55.5 12.5t56.5 4.5q91 0 139 -43t48 -127v-307h-55z" />
<glyph unicode="i" horiz-adv-x="241" d="M168 633q0 -20 -13.5 -33.5t-33.5 -13.5t-34 13.5t-14 33.5t14 34t34 14t33.5 -14t13.5 -34zM148 0h-55v467h55v-467z" />
<glyph unicode="j" horiz-adv-x="241" d="M168 633q0 -20 -13.5 -33.5t-33.5 -13.5t-34 13.5t-14 33.5t14 34t34 14t33.5 -14t13.5 -34zM148 -193q0 -43 -23 -63.5t-50 -20.5q-17 0 -33 3t-29 7v50q11 -4 22.5 -7t24.5 -3q33 0 33 34v660h55v-660z" />
<glyph unicode="k" horiz-adv-x="480" d="M402 0l-159 201l-95 -115v-86h-55v733h55v-574l250 308h63l-189 -230l195 -237h-65z" />
<glyph unicode="l" horiz-adv-x="261" d="M228 0q-13 -4 -28.5 -7t-32.5 -3q-28 0 -51 20.5t-23 63.5v659h55v-659q0 -34 33 -34q13 0 25 3t22 7v-50z" />
<glyph unicode="m" horiz-adv-x="839" d="M691 0v307q0 59 -30 89.5t-92 30.5q-63 0 -92.5 -30.5t-29.5 -89.5v-307h-55v307q0 62 -32 91t-100 29q-28 0 -56 -4t-56 -12v-411h-55v450q18 5 39 10t43 8.5t44 6t41 2.5q63 0 104.5 -20.5t56.5 -57.5q15 38 53 58t95 20q85 0 130.5 -45.5t45.5 -124.5v-307h-54z" />
<glyph unicode="n" horiz-adv-x="540" d="M392 0v307q0 62 -32 91t-100 29q-28 0 -56 -4t-56 -12v-411h-55v450q18 5 39 10t43 8.5t44 6t41 2.5q91 0 139 -43t48 -127v-307h-55z" />
<glyph unicode="o" horiz-adv-x="520" d="M473 233q0 -59 -15.5 -104.5t-43.5 -76t-67 -46.5t-87 -16t-87 16t-67 46.5t-43.5 76t-15.5 104.5t15.5 104.5t43.5 76.5t67 47t87 16t87 -16t67 -47t43.5 -76.5t15.5 -104.5zM417 233q0 96 -43 145t-114 49t-114 -49t-43 -145q0 -95 43 -144t114 -49t114 49t43 144z" />
<glyph unicode="p" horiz-adv-x="520" d="M473 233q0 -59 -15.5 -104.5t-43.5 -76t-67 -46.5t-87 -16q-26 0 -56.5 4.5t-55.5 12.5v-274h-55v717q18 5 39 10t43 8.5t44 6t41 2.5q48 0 87 -16t67 -47t43.5 -76.5t15.5 -104.5zM417 233q0 96 -43 145t-114 49q-28 0 -56 -4t-56 -12v-355q28 -8 56 -12t56 -4 q71 0 114 49t43 144z" />
<glyph unicode="q" horiz-adv-x="520" d="M507 -267q-13 -4 -29 -7t-33 -3q-27 0 -50 20.5t-23 63.5v200q-25 -8 -55.5 -12.5t-56.5 -4.5q-48 0 -87 16t-67 46.5t-43.5 76t-15.5 104.5t15.5 104.5t43.5 76.5t67 47t87 16q19 0 41 -2.5t44 -6t43 -8.5t39 -10v-643q0 -34 33 -34q13 0 24.5 3t22.5 7v-50zM372 411 q-28 8 -56 12t-56 4q-71 0 -114 -49t-43 -145q0 -95 43 -144t114 -49q28 0 56 4t56 12v355z" />
<glyph unicode="r" horiz-adv-x="410" d="M387 405q-32 10 -66 16t-61 6q-28 0 -56 -4t-56 -12v-411h-55v450q18 5 39 10t43 8.5t44 6t41 2.5q27 0 61 -6t66 -16v-50z" />
<glyph unicode="s" horiz-adv-x="440" d="M397 127q0 -28 -10.5 -53t-34 -43.5t-60.5 -29.5t-89 -11q-39 0 -76 6.5t-77 20.5v50q40 -14 77 -20.5t76 -6.5q40 0 66 7t42 19t22.5 27.5t6.5 31.5q0 40 -27 63t-90 23q-80 0 -125 36t-45 99q0 25 10.5 48.5t33 42t58 29.5t85.5 11q39 0 76.5 -7.5t70.5 -18.5v-50 q-33 11 -70.5 18.5t-76.5 7.5q-38 0 -63 -7t-40 -18.5t-21 -25.5t-6 -28q0 -38 26.5 -61t86.5 -23q83 0 128.5 -36t45.5 -101z" />
<glyph unicode="t" horiz-adv-x="369" d="M335 -2q-11 -4 -25 -6t-25 -2q-83 0 -122.5 39.5t-39.5 113.5v275h-100v49h100v128l55 8v-136h157v-49h-157v-275q0 -53 23.5 -78t83.5 -25q11 0 25 2t25 6v-50z" />
<glyph unicode="u" horiz-adv-x="560" d="M527 0q-13 -4 -29 -7t-33 -3q-15 0 -30.5 6.5t-25.5 19.5q-29 -12 -61.5 -19t-67.5 -7q-91 0 -139 43t-48 127v307h55v-307q0 -62 32 -91t100 -29q31 0 59 5.5t53 15.5v406h55v-393q0 -34 33 -34q13 0 24.5 3t22.5 7v-50z" />
<glyph unicode="v" horiz-adv-x="453" d="M253 0h-52l-188 467h60l154 -396l154 396h59z" />
<glyph unicode="w" horiz-adv-x="825" d="M625 0h-52l-160 399l-160 -399h-52l-188 467h60l154 -396l158 396h55l159 -396l154 396h59z" />
<glyph unicode="x" horiz-adv-x="447" d="M369 0l-146 200l-145 -200h-65l178 237l-172 230h64l140 -194l140 194h65l-172 -230l177 -237h-64z" />
<glyph unicode="y" horiz-adv-x="453" d="M145 -267h-56l109 273l-185 461h60l154 -396l154 396h59z" />
<glyph unicode="z" horiz-adv-x="467" d="M413 467v-26l-286 -392h293v-49h-373v25l286 393h-280v49h360z" />
<glyph unicode="{" horiz-adv-x="407" d="M340 -261q-17 -8 -34 -12t-37 -4q-54 0 -81 41q-20 31 -20 81q0 15 2 32l21 202q1 9 1 18q0 19 -4 35q-7 24 -20 40.5t-32 25t-41 8.5h-28v54h28q22 0 41 8.5t32 25t20 40.5q4 16 4 35q0 9 -1 18l-21 202q-2 17 -2 32q0 51 20 82q27 40 81 40q38 0 71 -16v-52 q-12 6 -26 10.5t-30 4.5q-34 0 -48 -22q-10 -16 -10 -48q0 -12 1 -25l21 -208q1 -12 1 -23q0 -44 -18 -73q-23 -37 -70 -58q47 -20 70 -57q18 -30 18 -74q0 -11 -1 -23l-21 -207q-1 -13 -1 -25q0 -32 10 -48q14 -22 48 -22q16 0 30 4.5t26 9.5v-52z" />
<glyph unicode="|" horiz-adv-x="320" d="M133 -267v1000h54v-1000h-54z" />
<glyph unicode="}" horiz-adv-x="407" d="M312 206q-22 0 -41 -8.5t-32 -25t-19 -40.5q-5 -16 -5 -35q0 -9 1 -18l21 -202q2 -17 2 -32q0 -50 -21 -81q-26 -41 -80 -41q-20 0 -37 4t-34 12v52q12 -5 26 -9.5t30 -4.5q34 0 48 22q10 16 10 48q0 12 -1 25l-21 207q-1 12 -1 23q0 44 18 74q23 37 69 57q-46 21 -69 58 q-18 29 -18 73q0 11 1 23l21 208q1 13 1 25q0 32 -10 48q-14 22 -48 22q-16 0 -30 -4.5t-26 -10.5v52q32 16 71 16q54 0 80 -40q21 -31 21 -82q0 -15 -2 -32l-21 -202q-1 -9 -1 -18q0 -19 5 -35q6 -24 19 -40.5t32 -25t41 -8.5h28v-54h-28z" />
<glyph unicode="~" horiz-adv-x="480" d="M427 313q-20 -23 -43.5 -38t-53.5 -15q-26 0 -51 15.5t-48 34.5l-43 34q-21 15 -38 15q-28 0 -50.5 -16t-46.5 -42v52q20 23 43.5 38.5t53.5 15.5q26 0 51 -15.5t48 -33.5l43 -34q21 -16 38 -16q28 0 50.5 16t46.5 42v-53z" />
<glyph unicode="&#xa1;" horiz-adv-x="307" d="M153 610q25 0 42.5 -17.5t17.5 -42.5t-17.5 -42.5t-42.5 -17.5t-42.5 17.5t-17.5 42.5t17.5 42.5t42.5 17.5zM184 0h-61v400h61v-400z" />
<glyph unicode="&#xa2;" horiz-adv-x="453" d="M407 78q-25 -8 -51.5 -13t-50.5 -7v-125h-53v125q-97 8 -151 69.5t-54 172.5t54 172.5t151 69.5v125h53v-125q24 -2 50.5 -7t51.5 -13v-50q-32 10 -66 15.5t-61 5.5q-85 0 -131 -48.5t-46 -144.5t46 -144.5t131 -48.5q27 0 61 5.5t66 15.5v-50z" />
<glyph unicode="&#xa3;" horiz-adv-x="507" d="M473 16q-45 -13 -89.5 -19.5t-103.5 -6.5q-35 0 -67.5 7t-61.5 19q-10 -13 -25.5 -19.5t-30.5 -6.5q-17 0 -33 3t-29 7v50q11 -4 22.5 -7t24.5 -3q33 0 33 34v203h-80v48h80v115q0 84 48 127t139 43q39 0 76.5 -6.5t76.5 -20.5v-50q-39 14 -76.5 20.5t-76.5 6.5 q-68 0 -100 -29t-32 -91v-115h185v-48h-185v-210q24 -12 52.5 -19.5t59.5 -7.5q59 0 103.5 6.5t89.5 19.5v-50z" />
<glyph unicode="&#xa5;" horiz-adv-x="469" d="M265 291h151v-48h-153v-243h-57v243h-153v48h151l-231 309h70l192 -264l192 264h69z" />
<glyph unicode="&#xa6;" horiz-adv-x="320" d="M187 267h-54v466h54v-466zM133 -267v467h54v-467h-54z" />
<glyph unicode="&#xa7;" horiz-adv-x="524" d="M474 234q0 -45 -24.5 -86.5t-75.5 -63.5q45 -16 69 -51t24 -80q0 -31 -13.5 -59.5t-40 -51t-66 -36t-91.5 -13.5q-60 0 -106 9t-93 28v51q47 -18 93 -27t106 -9q38 0 66.5 9t48 24t29 34t9.5 39q0 48 -36 73.5t-111 25.5q-53 0 -92.5 14t-66 38.5t-40 58.5t-13.5 75 q0 45 24.5 86.5t75.5 63.5q-45 16 -69 51t-24 80q0 31 13.5 59.5t40 51t66 36t91.5 13.5q60 0 106 -9t93 -28v-51q-47 18 -93 27t-106 9q-38 0 -66.5 -9.5t-48 -24.5t-29 -34t-9.5 -38q0 -48 36 -73.5t111 -25.5q53 0 92.5 -14t66 -38.5t40 -59t13.5 -74.5zM415 232 q0 60 -38 95t-112 35q-78 0 -117 -36.5t-39 -87.5q0 -60 38 -95t112 -35q78 0 117 36.5t39 87.5z" />
<glyph unicode="&#xa8;" horiz-adv-x="241" d="M241 633q0 -20 -13.5 -33.5t-33.5 -13.5t-33.5 13.5t-13.5 33.5t13.5 34t33.5 14t33.5 -14t13.5 -34zM95 633q0 -20 -14 -33.5t-34 -13.5t-33.5 13.5t-13.5 33.5t13.5 34t33.5 14t34 -14t14 -34z" />
<glyph unicode="&#xa9;" horiz-adv-x="787" d="M760 300q0 -76 -29 -143t-78.5 -116.5t-116.5 -78.5t-143 -29t-142.5 29t-116 78.5t-78.5 116.5t-29 143t29 143t78.5 116.5t116 78.5t142.5 29t143 -29t116.5 -78.5t78.5 -116.5t29 -143zM727 300q0 69 -26.5 129.5t-71.5 106t-106 71.5t-130 26t-129.5 -26t-106 -71.5 t-71.5 -106t-26 -129.5t26 -129.5t71.5 -106t106 -71.5t129.5 -26t130 26t106 71.5t71.5 106t26.5 129.5zM516 111q-26 -8 -55 -13t-52 -5q-95 0 -147 55t-52 152t52 152t147 55q23 0 52 -5t55 -13v-35q-26 8 -55 13t-52 5q-77 0 -118 -43.5t-41 -128.5t41 -128.5t118 -43.5 q23 0 52 5t55 13v-35z" />
<glyph unicode="&#xaa;" horiz-adv-x="445" d="M209 110q25 0 42.5 -17.5t17.5 -42.5t-17.5 -42.5t-42.5 -17.5t-42.5 17.5t-17.5 42.5t17.5 42.5t42.5 17.5zM411 229q-21 -8 -49 -8q-17 0 -29.5 4.5t-20.5 15.5q-23 -9 -49.5 -14.5t-53.5 -5.5q-80 0 -121 33t-41 84q0 48 33.5 77.5t102.5 29.5h110v29q0 85 -100 85 q-22 0 -49.5 -4.5t-52.5 -12.5v51q25 8 52.5 12.5t49.5 4.5q72 0 113 -34.5t41 -101.5v-175q0 -28 27 -28q10 0 19.5 2.5t17.5 5.5v-50zM293 397h-110q-45 0 -62.5 -16.5t-17.5 -42.5q0 -28 24.5 -48t81.5 -20q24 0 44 5t40 13v109z" />
<glyph unicode="&#xab;" horiz-adv-x="427" d="M300 0l-100 233l100 234h60l-100 -234l100 -233h-60zM180 0l-100 233l100 234h60l-100 -234l100 -233h-60z" />
<glyph unicode="&#xad;" horiz-adv-x="480" d="M53 243v48h374v-48h-374z" />
<glyph unicode="&#xae;" horiz-adv-x="787" d="M760 300q0 -76 -29 -143t-78.5 -116.5t-116.5 -78.5t-143 -29t-142.5 29t-116 78.5t-78.5 116.5t-29 143t29 143t78.5 116.5t116 78.5t142.5 29t143 -29t116.5 -78.5t78.5 -116.5t29 -143zM727 300q0 69 -26.5 129.5t-71.5 106t-106 71.5t-130 26t-129.5 -26t-106 -71.5 t-71.5 -106t-26 -129.5t26 -129.5t71.5 -106t106 -71.5t129.5 -26t130 26t106 71.5t71.5 106t26.5 129.5zM508 100l-134 178h-62v-178h-37v400h143q55 0 87 -28.5t32 -82.5q0 -55 -32 -83t-87 -28l134 -178h-44zM499 389q0 37 -21.5 57.5t-59.5 20.5h-106v-156h106 q38 0 59.5 20.5t21.5 57.5z" />
<glyph unicode="&#xaf;" horiz-adv-x="393" d="M53 563v48h287v-48h-287z" />
<glyph unicode="&#xb0;" horiz-adv-x="453" d="M397 440q0 -35 -13.5 -66t-36.5 -54t-54 -36.5t-66 -13.5t-66 13.5t-54 36.5t-36.5 54t-13.5 66t13.5 66t36.5 54t54 36.5t66 13.5t66 -13.5t54 -36.5t36.5 -54t13.5 -66zM348 440q0 25 -9.5 47t-26 38.5t-38.5 26t-47 9.5t-47 -9.5t-38.5 -26t-26 -38.5t-9.5 -47 t9.5 -47t26 -38.5t38.5 -26t47 -9.5t47 9.5t38.5 26t26 38.5t9.5 47z" />
<glyph unicode="&#xb1;" horiz-adv-x="480" d="M53 0v48h374v-48h-374zM264 293v-163h-48v163h-163v48h163v162h48v-162h163v-48h-163z" />
<glyph unicode="&#xb2;" d="M52 0v49q0 66 26 103.5t64.5 59.5t84 35.5t84 32t64.5 49t26 85.5q0 66 -41 105.5t-115 39.5q-41 0 -84.5 -6.5t-78.5 -17.5v52q35 11 78.5 17t84.5 6q51 0 91 -15t67 -41.5t41.5 -62.5t14.5 -77q0 -49 -15 -82t-40 -55.5t-56.5 -37t-63.5 -26.5l-64 -24 q-32 -12 -57 -29.5t-40 -43.5t-15 -66h365v-50h-421z" />
<glyph unicode="&#xb3;" d="M448 109q0 -38 -15 -72t-43 -59.5t-67.5 -40t-87.5 -14.5q-41 0 -84.5 6.5t-79.5 17.5v51q36 -11 79.5 -17t84.5 -6q74 0 115 38t41 96q0 59 -41 96.5t-115 37.5h-94v52h94q74 0 115 36.5t41 95.5q0 58 -41 95t-115 37q-41 0 -81.5 -6.5t-75.5 -17.5v52q35 11 75.5 17 t81.5 6q48 0 87.5 -14.5t67.5 -39t43 -58t15 -71.5q0 -26 -8 -50.5t-23.5 -45.5t-38 -37t-51.5 -25q28 -6 50 -22t38 -38.5t24.5 -48.5t8.5 -51z" />
<glyph unicode="&#xb4;" horiz-adv-x="241" d="M147 533h-54l87 200h54z" />
<glyph unicode="&#xb5;" horiz-adv-x="560" d="M527 0q-13 -4 -29 -7t-33 -3q-15 0 -30.5 6.5t-25.5 19.5q-29 -12 -61.5 -19t-67.5 -7q-45 0 -78.5 11.5t-53.5 35.5v-304h-55v734h55v-307q0 -62 32 -91t100 -29q31 0 59 5.5t53 15.5v406h55v-393q0 -34 33 -34q13 0 24.5 3t22.5 7v-50z" />
<glyph unicode="&#x3bc;" horiz-adv-x="560" d="M527 0q-13 -4 -29 -7t-33 -3q-15 0 -30.5 6.5t-25.5 19.5q-29 -12 -61.5 -19t-67.5 -7q-45 0 -78.5 11.5t-53.5 35.5v-304h-55v734h55v-307q0 -62 32 -91t100 -29q31 0 59 5.5t53 15.5v406h55v-393q0 -34 33 -34q13 0 24.5 3t22.5 7v-50z" />
<glyph unicode="&#xb6;" horiz-adv-x="520" d="M427 -133h-53v433q-19 -6 -42 -10t-46 -6v-417h-53v418q-42 4 -76.5 21.5t-58.5 46.5t-37.5 69.5t-13.5 90.5q0 54 15.5 96.5t43.5 72.5t67 45.5t87 15.5q19 0 41 -2t44 -6t43 -8.5t39 -9.5v-850zM374 680q-28 8 -57 12t-57 4q-71 0 -116 -48t-45 -135q0 -86 45 -134 t116 -48q28 0 57 4t57 12v333z" />
<glyph unicode="&#xb7;" horiz-adv-x="307" d="M153 327q25 0 42.5 -17.5t17.5 -42.5t-17.5 -42.5t-42.5 -17.5t-42.5 17.5t-17.5 42.5t17.5 42.5t42.5 17.5z" />
<glyph unicode="&#xb8;" horiz-adv-x="453" d="M224 -200h-54l86 200h54z" />
<glyph unicode="&#xb9;" d="M340 0h-55v517q-38 -35 -87 -66t-118 -58v55q72 28 124.5 64.5t105.5 87.5h30v-600z" />
<glyph unicode="&#xba;" horiz-adv-x="435" d="M217 110q25 0 42.5 -17.5t17.5 -42.5t-17.5 -42.5t-42.5 -17.5t-42.5 17.5t-17.5 42.5t17.5 42.5t42.5 17.5zM388 415q0 -95 -47 -144.5t-124 -49.5q-76 0 -123 49.5t-47 144.5t47 145t123 50q77 0 124 -50t47 -145zM217 559q-53 0 -84.5 -36t-31.5 -108 q0 -71 31.5 -107.5t84.5 -36.5t85 36.5t32 107.5q0 72 -32 108t-85 36z" />
<glyph unicode="&#xbb;" horiz-adv-x="427" d="M247 0h-60l100 233l-100 234h60l100 -234zM127 0h-60l100 233l-100 234h60l100 -234z" />
<glyph unicode="&#xbf;" horiz-adv-x="407" d="M233 610q25 0 42.5 -17.5t17.5 -42.5t-17.5 -42.5t-42.5 -17.5t-42.5 17.5t-17.5 42.5t17.5 42.5t42.5 17.5zM360 11q-31 -9 -65.5 -15t-61.5 -6q-92 0 -142.5 41t-50.5 109q0 30 12 52t30.5 40.5t40 35.5t40 36t30.5 42t12 54h57q0 -39 -12 -66.5t-30.5 -48t-39.5 -37.5 l-40 -32q-19 -15 -31 -33.5t-12 -42.5q0 -99 136 -99q27 0 61.5 6t65.5 16v-52z" />
<glyph unicode="&#xc0;" horiz-adv-x="515" d="M463 0l-65 167h-281l-65 -167h-65l241 600h59l241 -600h-65zM257 530l-121 -312h242zM225 666l-87 200h54l87 -200h-54z" />
<glyph unicode="&#xc1;" horiz-adv-x="515" d="M463 0l-65 167h-281l-65 -167h-65l241 600h59l241 -600h-65zM257 530l-121 -312h242zM299 668h-54l87 200h54z" />
<glyph unicode="&#xc2;" horiz-adv-x="515" d="M463 0l-65 167h-281l-65 -167h-65l241 600h59l241 -600h-65zM257 530l-121 -312h242zM320 666l-59 146l-60 -146h-54l87 200h54l86 -200h-54z" />
<glyph unicode="&#xc3;" horiz-adv-x="515" d="M463 0l-65 167h-281l-65 -167h-65l241 600h59l241 -600h-65zM257 530l-121 -312h242zM421 783q0 -65 -27.5 -96t-72.5 -31q-26 0 -46 16.5t-31 39.5q-7 16 -15 30t-28 14t-33.5 -18t-13.5 -55v-17h-53v17q0 65 27.5 96t72.5 31q26 0 46 -16.5t31 -39.5q7 -16 15 -30 t28 -14t33.5 18t13.5 55v17h53v-17z" />
<glyph unicode="&#xc4;" horiz-adv-x="515" d="M463 0l-65 167h-281l-65 -167h-65l241 600h59l241 -600h-65zM257 530l-121 -312h242zM378 700q0 -20 -13.5 -33.5t-33.5 -13.5t-33.5 13.5t-13.5 33.5t13.5 34t33.5 14t33.5 -14t13.5 -34zM232 700q0 -20 -14 -33.5t-34 -13.5t-33.5 13.5t-13.5 33.5t13.5 34t33.5 14 t34 -14t14 -34z" />
<glyph unicode="&#xc5;" horiz-adv-x="515" d="M463 0l-65 167h-281l-65 -167h-65l227 565q-31 13 -50.5 41.5t-19.5 63.5q0 24 9 44.5t24.5 35.5t36 24t43.5 9q24 0 44.5 -9t36 -24t24.5 -35.5t9 -44.5q0 -35 -19.5 -63.5t-50.5 -41.5l227 -565h-65zM327 670q0 29 -20.5 49.5t-49.5 20.5t-49.5 -20.5t-20.5 -49.5 t20.5 -49.5t49.5 -20.5t49.5 20.5t20.5 49.5zM257 530l-121 -312h242z" />
<glyph unicode="&#xc6;" horiz-adv-x="727" d="M660 551h-350l51 -222h299v-49h-287l53 -231h234v-49h-283l-38 167h-222l-65 -167h-65l241 600h432v-49zM257 530l-121 -312h192z" />
<glyph unicode="&#xc7;" horiz-adv-x="539" d="M499 17q-40 -12 -83 -19.5t-78 -7.5l-83 -190h-54l84 193q-118 15 -181.5 95.5t-63.5 211.5q0 72 20 129.5t58 97.5t93 61.5t126 21.5q35 0 78.5 -7.5t83.5 -19.5v-52q-40 12 -83.5 19.5t-78.5 7.5q-115 0 -176.5 -65.5t-61.5 -192.5t61.5 -192.5t176.5 -65.5 q35 0 78.5 7.5t83.5 19.5v-52z" />
<glyph unicode="&#xc8;" d="M259 666l-87 200h54l87 -200h-54zM93 0v600h374v-49h-318v-222h318v-49h-318v-231h318v-49h-374z" />
<glyph unicode="&#xc9;" d="M93 0v600h374v-49h-318v-222h318v-49h-318v-231h318v-49h-374zM307 666h-54l87 200h54z" />
<glyph unicode="&#xca;" d="M337 666l-59 146l-60 -146h-54l87 200h54l86 -200h-54zM93 0v600h374v-49h-318v-222h318v-49h-318v-231h318v-49h-374z" />
<glyph unicode="&#xcb;" d="M93 0v600h374v-49h-318v-222h318v-49h-318v-231h318v-49h-374zM399 700q0 -20 -13.5 -33.5t-33.5 -13.5t-33.5 13.5t-13.5 33.5t13.5 34t33.5 14t33.5 -14t13.5 -34zM253 700q0 -20 -14 -33.5t-34 -13.5t-33.5 13.5t-13.5 33.5t13.5 34t33.5 14t34 -14t14 -34z" />
<glyph unicode="&#xcc;" horiz-adv-x="244" d="M94 666l-87 200h54l87 -200h-54zM151 0h-58v600h58v-600z" />
<glyph unicode="&#xcd;" horiz-adv-x="244" d="M151 0h-58v600h58v-600zM147 666h-54l87 200h54z" />
<glyph unicode="&#xce;" horiz-adv-x="244" d="M186 666l-59 146l-60 -146h-54l87 200h54l86 -200h-54zM151 0h-58v600h58v-600z" />
<glyph unicode="&#xcf;" horiz-adv-x="244" d="M151 0h-58v600h58v-600zM244 700q0 -20 -13.5 -33.5t-33.5 -13.5t-33.5 13.5t-13.5 33.5t13.5 34t33.5 14t33.5 -14t13.5 -34zM98 700q0 -20 -14 -33.5t-34 -13.5t-33.5 13.5t-13.5 33.5t13.5 34t33.5 14t34 -14t14 -34z" />
<glyph unicode="&#xd0;" horiz-adv-x="647" d="M93 324v276h219q60 0 110 -19t86 -56.5t56 -93.5t20 -131t-20 -131.5t-56 -94t-86 -56t-110 -18.5h-219v276h-93v48h93zM525 300q0 126 -57.5 188.5t-155.5 62.5h-163v-227h104v-48h-104v-227h163q98 0 155.5 62.5t57.5 188.5z" />
<glyph unicode="&#xd1;" horiz-adv-x="635" d="M487 0l-338 501v-501h-56v600h56l338 -501v501h55v-600h-55zM480 783q0 -65 -27.5 -96t-72.5 -31q-26 0 -46 16.5t-31 39.5q-7 16 -15 30t-28 14t-33.5 -18t-13.5 -55v-17h-53v17q0 65 27.5 96t72.5 31q26 0 46 -16.5t31 -39.5q7 -16 15 -30t28 -14t33.5 18t13.5 55v17 h53v-17z" />
<glyph unicode="&#xd2;" horiz-adv-x="624" d="M584 300q0 -75 -20 -133t-56 -97t-86 -59.5t-110 -20.5t-110 20.5t-86 59.5t-56 97t-20 133t20 133t56 97t86 59.5t110 20.5t110 -20.5t86 -59.5t56 -97t20 -133zM525 300q0 127 -57 192.5t-156 65.5t-156 -65.5t-57 -192.5t57 -192.5t156 -65.5t156 65.5t57 192.5z M280 666l-87 200h54l87 -200h-54z" />
<glyph unicode="&#xd3;" horiz-adv-x="624" d="M584 300q0 -75 -20 -133t-56 -97t-86 -59.5t-110 -20.5t-110 20.5t-86 59.5t-56 97t-20 133t20 133t56 97t86 59.5t110 20.5t110 -20.5t86 -59.5t56 -97t20 -133zM525 300q0 127 -57 192.5t-156 65.5t-156 -65.5t-57 -192.5t57 -192.5t156 -65.5t156 65.5t57 192.5z M346 666h-54l87 200h54z" />
<glyph unicode="&#xd4;" horiz-adv-x="624" d="M371 666l-59 146l-60 -146h-54l87 200h54l86 -200h-54zM584 300q0 -75 -20 -133t-56 -97t-86 -59.5t-110 -20.5t-110 20.5t-86 59.5t-56 97t-20 133t20 133t56 97t86 59.5t110 20.5t110 -20.5t86 -59.5t56 -97t20 -133zM525 300q0 127 -57 192.5t-156 65.5t-156 -65.5 t-57 -192.5t57 -192.5t156 -65.5t156 65.5t57 192.5z" />
<glyph unicode="&#xd5;" horiz-adv-x="624" d="M584 300q0 -75 -20 -133t-56 -97t-86 -59.5t-110 -20.5t-110 20.5t-86 59.5t-56 97t-20 133t20 133t56 97t86 59.5t110 20.5t110 -20.5t86 -59.5t56 -97t20 -133zM525 300q0 127 -57 192.5t-156 65.5t-156 -65.5t-57 -192.5t57 -192.5t156 -65.5t156 65.5t57 192.5z M470 783q0 -65 -27.5 -96t-72.5 -31q-26 0 -46 16.5t-31 39.5q-7 16 -15 30t-28 14t-33.5 -18t-13.5 -55v-17h-53v17q0 65 27.5 96t72.5 31q26 0 46 -16.5t31 -39.5q7 -16 15 -30t28 -14t33.5 18t13.5 55v17h53v-17z" />
<glyph unicode="&#xd6;" horiz-adv-x="624" d="M584 300q0 -75 -20 -133t-56 -97t-86 -59.5t-110 -20.5t-110 20.5t-86 59.5t-56 97t-20 133t20 133t56 97t86 59.5t110 20.5t110 -20.5t86 -59.5t56 -97t20 -133zM525 300q0 127 -57 192.5t-156 65.5t-156 -65.5t-57 -192.5t57 -192.5t156 -65.5t156 65.5t57 192.5z M429 700q0 -20 -13.5 -33.5t-33.5 -13.5t-33.5 13.5t-13.5 33.5t13.5 34t33.5 14t33.5 -14t13.5 -34zM283 700q0 -20 -14 -33.5t-34 -13.5t-33.5 13.5t-13.5 33.5t13.5 34t33.5 14t34 -14t14 -34z" />
<glyph unicode="&#xd7;" horiz-adv-x="480" d="M406 398l-132 -131l132 -132l-34 -34l-132 132l-132 -132l-34 34l132 132l-132 131l34 34l132 -131l132 131z" />
<glyph unicode="&#xd8;" horiz-adv-x="624" d="M584 300q0 -75 -20 -133t-56 -97t-86 -59.5t-110 -20.5t-110 20.5t-86 59.5t-56 97t-20 133t20 133t56 97t86 59.5t110 20.5t110 -20.5t86 -59.5t56 -97t20 -133zM526 300q0 75 -20.5 128.5t-58.5 85.5l-227 -455q40 -18 92 -18q99 0 156.5 65.5t57.5 193.5zM404 541 q-41 18 -92 18q-99 0 -156.5 -65.5t-57.5 -193.5q0 -75 20.5 -128.5t58.5 -85.5z" />
<glyph unicode="&#xd9;" horiz-adv-x="617" d="M534 233q0 -58 -16.5 -103t-46.5 -76t-71.5 -47.5t-90.5 -16.5q-50 0 -91.5 16.5t-71.5 47.5t-46.5 76t-16.5 103v367h57v-367q0 -47 12.5 -82.5t35 -59.5t53.5 -36.5t68 -12.5t67.5 12.5t53 36.5t35 59.5t12.5 82.5v367h57v-367zM274 666l-87 200h54l87 -200h-54z" />
<glyph unicode="&#xda;" horiz-adv-x="617" d="M534 233q0 -58 -16.5 -103t-46.5 -76t-71.5 -47.5t-90.5 -16.5q-50 0 -91.5 16.5t-71.5 47.5t-46.5 76t-16.5 103v367h57v-367q0 -47 12.5 -82.5t35 -59.5t53.5 -36.5t68 -12.5t67.5 12.5t53 36.5t35 59.5t12.5 82.5v367h57v-367zM335 666h-54l87 200h54z" />
<glyph unicode="&#xdb;" horiz-adv-x="617" d="M367 666l-59 146l-60 -146h-54l87 200h54l86 -200h-54zM534 233q0 -58 -16.5 -103t-46.5 -76t-71.5 -47.5t-90.5 -16.5q-50 0 -91.5 16.5t-71.5 47.5t-46.5 76t-16.5 103v367h57v-367q0 -47 12.5 -82.5t35 -59.5t53.5 -36.5t68 -12.5t67.5 12.5t53 36.5t35 59.5 t12.5 82.5v367h57v-367z" />
<glyph unicode="&#xdc;" horiz-adv-x="617" d="M427 700q0 -20 -13.5 -33.5t-33.5 -13.5t-33.5 13.5t-13.5 33.5t13.5 34t33.5 14t33.5 -14t13.5 -34zM281 700q0 -20 -14 -33.5t-34 -13.5t-33.5 13.5t-13.5 33.5t13.5 34t33.5 14t34 -14t14 -34zM534 233q0 -58 -16.5 -103t-46.5 -76t-71.5 -47.5t-90.5 -16.5 q-50 0 -91.5 16.5t-71.5 47.5t-46.5 76t-16.5 103v367h57v-367q0 -47 12.5 -82.5t35 -59.5t53.5 -36.5t68 -12.5t67.5 12.5t53 36.5t35 59.5t12.5 82.5v367h57v-367z" />
<glyph unicode="&#xdd;" horiz-adv-x="469" d="M263 288v-288h-57v288l-233 312h70l192 -264l192 264h69zM272 666h-54l87 200h54z" />
<glyph unicode="&#xde;" horiz-adv-x="507" d="M487 300q0 -82 -48.5 -124.5t-129.5 -42.5h-160v-133h-56v600h56v-133h160q81 0 129.5 -42.5t48.5 -124.5zM149 417v-234h160q57 0 89 30.5t32 86.5t-32 86.5t-89 30.5h-160z" />
<glyph unicode="&#xdf;" horiz-adv-x="581" d="M547 127q0 -28 -10.5 -53t-34 -43.5t-60 -29.5t-88.5 -11q-39 0 -76.5 6.5t-76.5 20.5v50q39 -14 76.5 -20.5t76.5 -6.5t65.5 7t42.5 19t22.5 27.5t6.5 31.5q0 40 -27 63t-90 23q-81 0 -125.5 36t-44.5 99q0 29 12 52t29.5 43.5t38 38.5t38 36.5t29.5 39t12 44.5 q0 41 -30 67t-78 26q-59 0 -83 -30t-24 -96v-567h-55v567q0 87 40.5 131.5t121.5 44.5q38 0 68 -10.5t51 -29.5t32 -45.5t11 -57.5q0 -29 -11.5 -53t-29 -45t-37.5 -39.5t-37.5 -37t-29 -37.5t-11.5 -40q0 -38 26 -61t87 -23q83 0 128 -36t45 -101z" />
<glyph unicode="&#xe0;" horiz-adv-x="522" d="M489 0q-13 -4 -29 -7t-33 -3q-15 0 -30.5 6.5t-25.5 19.5q-29 -12 -61.5 -19t-67.5 -7q-97 0 -146 41.5t-49 105.5q0 55 40 91.5t123 36.5h144v42q0 62 -32 91t-100 29q-27 0 -61 -6t-66 -16v50q32 10 66 16t61 6q91 0 139 -43t48 -127v-233q0 -34 33 -34q13 0 24.5 3 t22.5 7v-50zM354 217h-144q-57 0 -82 -22t-25 -58q0 -45 34.5 -71.5t104.5 -26.5q31 0 59 6t53 16v156zM200 533l-87 200h54l87 -200h-54z" />
<glyph unicode="&#xe1;" horiz-adv-x="522" d="M489 0q-13 -4 -29 -7t-33 -3q-15 0 -30.5 6.5t-25.5 19.5q-29 -12 -61.5 -19t-67.5 -7q-97 0 -146 41.5t-49 105.5q0 55 40 91.5t123 36.5h144v42q0 62 -32 91t-100 29q-27 0 -61 -6t-66 -16v50q32 10 66 16t61 6q91 0 139 -43t48 -127v-233q0 -34 33 -34q13 0 24.5 3 t22.5 7v-50zM354 217h-144q-57 0 -82 -22t-25 -58q0 -45 34.5 -71.5t104.5 -26.5q31 0 59 6t53 16v156zM254 533h-54l87 200h54z" />
<glyph unicode="&#xe2;" horiz-adv-x="522" d="M489 0q-13 -4 -29 -7t-33 -3q-15 0 -30.5 6.5t-25.5 19.5q-29 -12 -61.5 -19t-67.5 -7q-97 0 -146 41.5t-49 105.5q0 55 40 91.5t123 36.5h144v42q0 62 -32 91t-100 29q-27 0 -61 -6t-66 -16v50q32 10 66 16t61 6q91 0 139 -43t48 -127v-233q0 -34 33 -34q13 0 24.5 3 t22.5 7v-50zM354 217h-144q-57 0 -82 -22t-25 -58q0 -45 34.5 -71.5t104.5 -26.5q31 0 59 6t53 16v156zM307 533l-59 146l-60 -146h-54l87 200h54l86 -200h-54z" />
<glyph unicode="&#xe3;" horiz-adv-x="522" d="M489 0q-13 -4 -29 -7t-33 -3q-15 0 -30.5 6.5t-25.5 19.5q-29 -12 -61.5 -19t-67.5 -7q-97 0 -146 41.5t-49 105.5q0 55 40 91.5t123 36.5h144v42q0 62 -32 91t-100 29q-27 0 -61 -6t-66 -16v50q32 10 66 16t61 6q91 0 139 -43t48 -127v-233q0 -34 33 -34q13 0 24.5 3 t22.5 7v-50zM354 217h-144q-57 0 -82 -22t-25 -58q0 -45 34.5 -71.5t104.5 -26.5q31 0 59 6t53 16v156zM419 650q0 -65 -27.5 -96t-72.5 -31q-26 0 -46 16.5t-31 39.5q-7 16 -15 30t-28 14t-33.5 -18t-13.5 -55v-17h-53v17q0 65 27.5 96t72.5 31q26 0 46 -16.5t31 -39.5 q7 -16 15 -30t28 -14t33.5 18t13.5 55v17h53v-17z" />
<glyph unicode="&#xe4;" horiz-adv-x="522" d="M377 633q0 -20 -13.5 -33.5t-33.5 -13.5t-33.5 13.5t-13.5 33.5t13.5 34t33.5 14t33.5 -14t13.5 -34zM231 633q0 -20 -14 -33.5t-34 -13.5t-33.5 13.5t-13.5 33.5t13.5 34t33.5 14t34 -14t14 -34zM489 0q-13 -4 -29 -7t-33 -3q-15 0 -30.5 6.5t-25.5 19.5 q-29 -12 -61.5 -19t-67.5 -7q-97 0 -146 41.5t-49 105.5q0 55 40 91.5t123 36.5h144v42q0 62 -32 91t-100 29q-27 0 -61 -6t-66 -16v50q32 10 66 16t61 6q91 0 139 -43t48 -127v-233q0 -34 33 -34q13 0 24.5 3t22.5 7v-50zM354 217h-144q-57 0 -82 -22t-25 -58 q0 -45 34.5 -71.5t104.5 -26.5q31 0 59 6t53 16v156z" />
<glyph unicode="&#xe5;" horiz-adv-x="522" d="M489 0q-13 -4 -29 -7t-33 -3q-15 0 -30.5 6.5t-25.5 19.5q-29 -12 -61.5 -19t-67.5 -7q-97 0 -146 41.5t-49 105.5q0 55 40 91.5t123 36.5h144v42q0 62 -32 91t-100 29q-27 0 -61 -6t-66 -16v50q32 10 66 16t61 6q91 0 139 -43t48 -127v-233q0 -34 33 -34q13 0 24.5 3 t22.5 7v-50zM354 217h-144q-57 0 -82 -22t-25 -58q0 -45 34.5 -71.5t104.5 -26.5q31 0 59 6t53 16v156zM368 630q0 -24 -9 -44.5t-24 -35.5t-35.5 -24t-44.5 -9t-44.5 9t-35.5 24t-24 35.5t-9 44.5t9 44.5t24 35.5t35.5 24t44.5 9t44.5 -9t35.5 -24t24 -35.5t9 -44.5z M325 630q0 29 -20.5 49.5t-49.5 20.5t-49.5 -20.5t-20.5 -49.5t20.5 -49.5t49.5 -20.5t49.5 20.5t20.5 49.5z" />
<glyph unicode="&#xe6;" horiz-adv-x="824" d="M777 217h-366q4 -93 55.5 -135t134.5 -42q16 0 34 2t37 5t36.5 7t32.5 9v-50q-15 -5 -32.5 -9t-36.5 -7t-37 -5t-34 -2q-53 0 -96 13t-75 39q-35 -20 -84.5 -36t-103.5 -16q-97 0 -146 41.5t-49 105.5q0 55 40 91.5t123 36.5h144v42q0 62 -32 91t-100 29q-27 0 -61 -6 t-66 -16v50q32 10 66 16t61 6q137 0 171 -100q26 48 70 74t104 26q96 0 153 -62.5t57 -181.5v-16zM722 265q-8 80 -50.5 121t-104.5 41q-64 0 -105.5 -41t-49.5 -121h310zM395 81q-37 53 -41 136h-144q-57 0 -82 -22t-25 -58q0 -45 34.5 -71.5t104.5 -26.5q47 0 84 12.5 t69 29.5z" />
<glyph unicode="&#xe7;" horiz-adv-x="453" d="M407 11q-24 -7 -50.5 -12.5t-49.5 -7.5l-83 -191h-54l82 191q-97 8 -151 69.5t-54 172.5q0 119 62 181.5t171 62.5q27 0 61 -6t66 -16v-50q-32 10 -66 16t-61 6q-85 0 -131 -49t-46 -145q0 -95 46 -144t131 -49q27 0 61 6t66 15v-50z" />
<glyph unicode="&#xe8;" horiz-adv-x="517" d="M470 217h-366q4 -93 55 -135t134 -42q32 0 71.5 6.5t68.5 16.5v-50q-29 -10 -68.5 -16.5t-71.5 -6.5q-56 0 -101.5 15t-77.5 45.5t-49.5 76t-17.5 106.5q0 59 15.5 104.5t43.5 76.5t67 47t87 16q96 0 153 -62.5t57 -181.5v-16zM415 265q-8 80 -51 121t-104 41 q-65 0 -106 -41t-49 -121h310zM232 533l-87 200h54l87 -200h-54z" />
<glyph unicode="&#xe9;" horiz-adv-x="517" d="M470 217h-366q4 -93 55 -135t134 -42q32 0 71.5 6.5t68.5 16.5v-50q-29 -10 -68.5 -16.5t-71.5 -6.5q-56 0 -101.5 15t-77.5 45.5t-49.5 76t-17.5 106.5q0 59 15.5 104.5t43.5 76.5t67 47t87 16q96 0 153 -62.5t57 -181.5v-16zM415 265q-8 80 -51 121t-104 41 q-65 0 -106 -41t-49 -121h310zM286 533h-54l87 200h54z" />
<glyph unicode="&#xea;" horiz-adv-x="517" d="M470 217h-366q4 -93 55 -135t134 -42q32 0 71.5 6.5t68.5 16.5v-50q-29 -10 -68.5 -16.5t-71.5 -6.5q-56 0 -101.5 15t-77.5 45.5t-49.5 76t-17.5 106.5q0 59 15.5 104.5t43.5 76.5t67 47t87 16q96 0 153 -62.5t57 -181.5v-16zM415 265q-8 80 -51 121t-104 41 q-65 0 -106 -41t-49 -121h310zM319 533l-59 146l-60 -146h-54l87 200h54l86 -200h-54z" />
<glyph unicode="&#xeb;" horiz-adv-x="517" d="M371 633q0 -20 -13.5 -33.5t-33.5 -13.5t-33.5 13.5t-13.5 33.5t13.5 34t33.5 14t33.5 -14t13.5 -34zM225 633q0 -20 -14 -33.5t-34 -13.5t-33.5 13.5t-13.5 33.5t13.5 34t33.5 14t34 -14t14 -34zM470 217h-366q4 -93 55 -135t134 -42q32 0 71.5 6.5t68.5 16.5v-50 q-29 -10 -68.5 -16.5t-71.5 -6.5q-56 0 -101.5 15t-77.5 45.5t-49.5 76t-17.5 106.5q0 59 15.5 104.5t43.5 76.5t67 47t87 16q96 0 153 -62.5t57 -181.5v-16zM415 265q-8 80 -51 121t-104 41q-65 0 -106 -41t-49 -121h310z" />
<glyph unicode="&#xec;" horiz-adv-x="241" d="M94 533l-87 200h54l87 -200h-54zM149 0h-55v467h55v-467z" />
<glyph unicode="&#xed;" horiz-adv-x="241" d="M147 533h-54l87 200h54zM149 0h-55v467h55v-467z" />
<glyph unicode="&#xee;" horiz-adv-x="241" d="M180 533l-59 146l-60 -146h-54l87 200h54l86 -200h-54zM149 0h-55v467h55v-467z" />
<glyph unicode="&#xef;" horiz-adv-x="241" d="M241 633q0 -20 -13.5 -33.5t-33.5 -13.5t-33.5 13.5t-13.5 33.5t13.5 34t33.5 14t33.5 -14t13.5 -34zM95 633q0 -20 -14 -33.5t-34 -13.5t-33.5 13.5t-13.5 33.5t13.5 34t33.5 14t34 -14t14 -34zM149 0h-55v467h55v-467z" />
<glyph unicode="&#xf0;" horiz-adv-x="520" d="M473 233q0 -60 -15.5 -105.5t-43.5 -76t-67 -46t-87 -15.5t-87 16t-67 46.5t-43.5 76t-15.5 104.5q0 60 16 105.5t43 76.5t63.5 46.5t77.5 15.5q36 0 69.5 -10.5t61.5 -30.5q-30 68 -77 133h-146v48h110q-23 30 -50 59l-56 57h68q27 -27 52 -56t48 -60h146v-48h-113 q54 -82 83.5 -168t29.5 -168zM417 233q0 96 -43 145t-114 49t-114 -49t-43 -145q0 -95 43 -144t114 -49t114 49t43 144z" />
<glyph unicode="&#xf1;" horiz-adv-x="540" d="M429 650q0 -65 -27.5 -96t-72.5 -31q-27 0 -46.5 16.5t-30.5 39.5q-7 16 -15.5 30t-27.5 14q-21 0 -34 -18t-13 -55v-17h-53v17q0 65 27 96t73 31q26 0 45.5 -16.5t30.5 -39.5q7 -16 15.5 -30t28.5 -14t33 18t13 55v17h54v-17zM405 0v307q0 62 -32 91t-100 29 q-27 0 -55.5 -4t-56.5 -12v-411h-54v450q36 10 82 18.5t84 8.5q91 0 139 -43t48 -127v-307h-55z" />
<glyph unicode="&#xf2;" horiz-adv-x="520" d="M473 233q0 -59 -15.5 -104.5t-43.5 -76t-67 -46.5t-87 -16t-87 16t-67 46.5t-43.5 76t-15.5 104.5t15.5 104.5t43.5 76.5t67 47t87 16t87 -16t67 -47t43.5 -76.5t15.5 -104.5zM417 233q0 96 -43 145t-114 49t-114 -49t-43 -145q0 -95 43 -144t114 -49t114 49t43 144z M229 533l-87 200h54l87 -200h-54z" />
<glyph unicode="&#xf3;" horiz-adv-x="520" d="M473 233q0 -59 -15.5 -104.5t-43.5 -76t-67 -46.5t-87 -16t-87 16t-67 46.5t-43.5 76t-15.5 104.5t15.5 104.5t43.5 76.5t67 47t87 16t87 -16t67 -47t43.5 -76.5t15.5 -104.5zM417 233q0 96 -43 145t-114 49t-114 -49t-43 -145q0 -95 43 -144t114 -49t114 49t43 144z M289 533h-54l87 200h54z" />
<glyph unicode="&#xf4;" horiz-adv-x="520" d="M473 233q0 -59 -15.5 -104.5t-43.5 -76t-67 -46.5t-87 -16t-87 16t-67 46.5t-43.5 76t-15.5 104.5t15.5 104.5t43.5 76.5t67 47t87 16t87 -16t67 -47t43.5 -76.5t15.5 -104.5zM417 233q0 96 -43 145t-114 49t-114 -49t-43 -145q0 -95 43 -144t114 -49t114 49t43 144z M320 533l-59 146l-60 -146h-54l87 200h54l86 -200h-54z" />
<glyph unicode="&#xf5;" horiz-adv-x="520" d="M473 233q0 -59 -15.5 -104.5t-43.5 -76t-67 -46.5t-87 -16t-87 16t-67 46.5t-43.5 76t-15.5 104.5t15.5 104.5t43.5 76.5t67 47t87 16t87 -16t67 -47t43.5 -76.5t15.5 -104.5zM417 233q0 96 -43 145t-114 49t-114 -49t-43 -145q0 -95 43 -144t114 -49t114 49t43 144z M420 650q0 -65 -27.5 -96t-72.5 -31q-26 0 -46 16.5t-31 39.5q-7 16 -15 30t-28 14t-33.5 -18t-13.5 -55v-17h-53v17q0 65 27.5 96t72.5 31q26 0 46 -16.5t31 -39.5q7 -16 15 -30t28 -14t33.5 18t13.5 55v17h53v-17z" />
<glyph unicode="&#xf6;" horiz-adv-x="520" d="M380 633q0 -20 -13.5 -33.5t-33.5 -13.5t-33.5 13.5t-13.5 33.5t13.5 34t33.5 14t33.5 -14t13.5 -34zM234 633q0 -20 -14 -33.5t-34 -13.5t-33.5 13.5t-13.5 33.5t13.5 34t33.5 14t34 -14t14 -34zM473 233q0 -59 -15.5 -104.5t-43.5 -76t-67 -46.5t-87 -16t-87 16 t-67 46.5t-43.5 76t-15.5 104.5t15.5 104.5t43.5 76.5t67 47t87 16t87 -16t67 -47t43.5 -76.5t15.5 -104.5zM417 233q0 96 -43 145t-114 49t-114 -49t-43 -145q0 -95 43 -144t114 -49t114 49t43 144z" />
<glyph unicode="&#xf7;" horiz-adv-x="480" d="M53 243v48h374v-48h-374zM290 417q0 -21 -14.5 -35.5t-35.5 -14.5t-35.5 14.5t-14.5 35.5q0 20 14.5 35t35.5 15t35.5 -15t14.5 -35zM290 117q0 -21 -14.5 -35.5t-35.5 -14.5t-35.5 14.5t-14.5 35.5q0 20 14.5 35t35.5 15t35.5 -15t14.5 -35z" />
<glyph unicode="&#xf8;" horiz-adv-x="520" d="M473 233q0 -59 -15.5 -104.5t-43.5 -76t-67 -46.5t-87 -16t-87 16t-67 46.5t-43.5 76t-15.5 104.5t15.5 104.5t43.5 76.5t67 47t87 16t87 -16t67 -47t43.5 -76.5t15.5 -104.5zM418 233q0 54 -13.5 92.5t-38.5 62.5l-169 -338q28 -12 63 -12q72 0 115 49t43 146zM323 417 q-29 12 -63 12q-72 0 -115 -49.5t-43 -146.5q0 -53 13.5 -91.5t38.5 -63.5z" />
<glyph unicode="&#xf9;" horiz-adv-x="560" d="M240 533l-87 200h54l87 -200h-54zM527 0q-13 -4 -29 -7t-33 -3q-15 0 -30.5 6.5t-25.5 19.5q-29 -12 -61.5 -19t-67.5 -7q-91 0 -139 43t-48 127v307h55v-307q0 -62 32 -91t100 -29q31 0 59 5.5t53 15.5v406h55v-393q0 -34 33 -34q13 0 24.5 3t22.5 7v-50z" />
<glyph unicode="&#xfa;" horiz-adv-x="560" d="M527 0q-13 -4 -29 -7t-33 -3q-15 0 -30.5 6.5t-25.5 19.5q-29 -12 -61.5 -19t-67.5 -7q-91 0 -139 43t-48 127v307h55v-307q0 -62 32 -91t100 -29q31 0 59 5.5t53 15.5v406h55v-393q0 -34 33 -34q13 0 24.5 3t22.5 7v-50zM298 533h-54l87 200h54z" />
<glyph unicode="&#xfb;" horiz-adv-x="560" d="M527 0q-13 -4 -29 -7t-33 -3q-15 0 -30.5 6.5t-25.5 19.5q-29 -12 -61.5 -19t-67.5 -7q-91 0 -139 43t-48 127v307h55v-307q0 -62 32 -91t100 -29q31 0 59 5.5t53 15.5v406h55v-393q0 -34 33 -34q13 0 24.5 3t22.5 7v-50zM327 533l-59 146l-60 -146h-54l87 200h54 l86 -200h-54z" />
<glyph unicode="&#xfc;" horiz-adv-x="560" d="M390 633q0 -20 -13.5 -33.5t-33.5 -13.5t-33.5 13.5t-13.5 33.5t13.5 34t33.5 14t33.5 -14t13.5 -34zM244 633q0 -20 -14 -33.5t-34 -13.5t-33.5 13.5t-13.5 33.5t13.5 34t33.5 14t34 -14t14 -34zM527 0q-13 -4 -29 -7t-33 -3q-15 0 -30.5 6.5t-25.5 19.5 q-29 -12 -61.5 -19t-67.5 -7q-91 0 -139 43t-48 127v307h55v-307q0 -62 32 -91t100 -29q31 0 59 5.5t53 15.5v406h55v-393q0 -34 33 -34q13 0 24.5 3t22.5 7v-50z" />
<glyph unicode="&#xfd;" horiz-adv-x="453" d="M253 533h-54l87 200h54zM145 -267h-56l109 273l-185 461h60l154 -396l154 396h59z" />
<glyph unicode="&#xfe;" horiz-adv-x="520" d="M473 233q0 -59 -15.5 -104.5t-43.5 -76t-67 -46.5t-87 -16q-26 0 -56.5 4.5t-55.5 12.5v-274h-55v1000h55v-273q25 8 55.5 12.5t56.5 4.5q48 0 87 -16t67 -47t43.5 -76.5t15.5 -104.5zM417 233q0 96 -43 145t-114 49q-28 0 -56 -4t-56 -12v-355q28 -8 56 -12t56 -4 q71 0 114 49t43 144z" />
<glyph unicode="&#xff;" horiz-adv-x="453" d="M145 -267h-56l109 273l-185 461h60l154 -396l154 396h59zM348 633q0 -20 -13.5 -33.5t-33.5 -13.5t-33.5 13.5t-13.5 33.5t13.5 34t33.5 14t33.5 -14t13.5 -34zM202 633q0 -20 -14 -33.5t-34 -13.5t-33.5 13.5t-13.5 33.5t13.5 34t33.5 14t34 -14t14 -34z" />
<glyph unicode="&#x131;" horiz-adv-x="241" d="M148 0h-55v467h55v-467z" />
<glyph unicode="&#x152;" horiz-adv-x="887" d="M392 0q-36 -10 -80 -10q-60 0 -110 20.5t-86 59.5t-56 97t-20 133t20 133t56 97t86 59.5t110 20.5q44 0 80 -10h428v-49h-333q42 -35 67 -91t29 -131h237v-49h-236q-3 -79 -28.5 -137t-68.5 -94h333v-49h-428zM525 300q0 127 -57 192.5t-156 65.5t-156 -65.5t-57 -192.5 t57 -192.5t156 -65.5t156 65.5t57 192.5z" />
<glyph unicode="&#x153;" horiz-adv-x="887" d="M630 477q96 0 153 -62.5t57 -181.5v-16h-366q4 -93 55 -135t134 -42q32 0 71.5 6.5t68.5 16.5v-50q-29 -10 -68.5 -16.5t-71.5 -6.5q-80 0 -135.5 30t-81.5 91q-24 -60 -71.5 -90.5t-114.5 -30.5q-48 0 -87 16t-67 46.5t-43.5 76t-15.5 104.5t15.5 104.5t43.5 76.5t67 47 t87 16q66 0 113.5 -30.5t71.5 -88.5q24 58 71.5 88.5t113.5 30.5zM785 265q-8 80 -51 121t-104 41q-65 0 -106 -41t-49 -121h310zM417 233q0 96 -43 145t-114 49t-114 -49t-43 -145q0 -95 43 -144t114 -49t114 49t43 144z" />
<glyph unicode="&#x178;" horiz-adv-x="469" d="M356 700q0 -20 -13.5 -33.5t-33.5 -13.5t-33.5 13.5t-13.5 33.5t13.5 34t33.5 14t33.5 -14t13.5 -34zM210 700q0 -20 -14 -33.5t-34 -13.5t-33.5 13.5t-13.5 33.5t13.5 34t33.5 14t34 -14t14 -34zM263 288v-288h-57v288l-233 312h70l192 -264l192 264h69z" />
<glyph unicode="&#x2c6;" horiz-adv-x="241" d="M180 533l-59 146l-60 -146h-54l87 200h54l86 -200h-54z" />
<glyph unicode="&#x2dc;" horiz-adv-x="480" d="M400 650q0 -65 -27.5 -96t-72.5 -31q-26 0 -46 16.5t-31 39.5q-7 16 -15 30t-28 14t-33.5 -18t-13.5 -55v-17h-53v17q0 65 27.5 96t72.5 31q26 0 46 -16.5t31 -39.5q7 -16 15 -30t28 -14t33.5 18t13.5 55v17h53v-17z" />
<glyph unicode="&#x2000;" horiz-adv-x="434" />
<glyph unicode="&#x2001;" horiz-adv-x="868" />
<glyph unicode="&#x2002;" horiz-adv-x="434" />
<glyph unicode="&#x2003;" horiz-adv-x="868" />
<glyph unicode="&#x2004;" horiz-adv-x="289" />
<glyph unicode="&#x2005;" horiz-adv-x="217" />
<glyph unicode="&#x2006;" horiz-adv-x="144" />
<glyph unicode="&#x2007;" horiz-adv-x="144" />
<glyph unicode="&#x2008;" horiz-adv-x="108" />
<glyph unicode="&#x2009;" horiz-adv-x="173" />
<glyph unicode="&#x200a;" horiz-adv-x="48" />
<glyph unicode="&#x2010;" horiz-adv-x="480" d="M53 243v48h374v-48h-374z" />
<glyph unicode="&#x2011;" horiz-adv-x="480" d="M53 243v48h374v-48h-374z" />
<glyph unicode="&#x2013;" horiz-adv-x="960" d="M53 209v48h854v-48h-854z" />
<glyph unicode="&#x2014;" horiz-adv-x="1440" d="M53 209v48h1334v-48h-1334z" />
<glyph unicode="&#x2018;" horiz-adv-x="307" d="M159 420q-30 45 -48 93t-18 104q0 25 17.5 42.5t42.5 17.5t42.5 -17.5t17.5 -42.5t-17.5 -42.5t-42.5 -17.5q8 -37 23.5 -71t36.5 -66h-54z" />
<glyph unicode="&#x2019;" horiz-adv-x="307" d="M213 617q0 -56 -17.5 -104t-47.5 -93h-55q22 32 37.5 66t22.5 71q-25 0 -42.5 17.5t-17.5 42.5t17.5 42.5t42.5 17.5t42.5 -17.5t17.5 -42.5z" />
<glyph unicode="&#x201a;" horiz-adv-x="307" d="M213 50q0 -55 -17.5 -103.5t-47.5 -93.5h-55q22 32 37.5 66t22.5 71q-25 0 -42.5 17.5t-17.5 42.5t17.5 42.5t42.5 17.5t42.5 -17.5t17.5 -42.5z" />
<glyph unicode="&#x201c;" horiz-adv-x="467" d="M159 420q-30 45 -48 93t-18 104q0 25 17.5 42.5t42.5 17.5t42.5 -17.5t17.5 -42.5t-17.5 -42.5t-42.5 -17.5q8 -37 23.5 -71t36.5 -66h-54zM319 420q-30 45 -48 93t-18 104q0 25 17.5 42.5t42.5 17.5t42.5 -17.5t17.5 -42.5t-17.5 -42.5t-42.5 -17.5q8 -37 23.5 -71 t36.5 -66h-54z" />
<glyph unicode="&#x201d;" horiz-adv-x="467" d="M213 617q0 -56 -17.5 -104t-47.5 -93h-55q22 32 37.5 66t22.5 71q-25 0 -42.5 17.5t-17.5 42.5t17.5 42.5t42.5 17.5t42.5 -17.5t17.5 -42.5zM373 617q0 -56 -17.5 -104t-47.5 -93h-55q22 32 37.5 66t22.5 71q-25 0 -42.5 17.5t-17.5 42.5t17.5 42.5t42.5 17.5 t42.5 -17.5t17.5 -42.5z" />
<glyph unicode="&#x201e;" horiz-adv-x="467" d="M213 50q0 -55 -17.5 -103.5t-47.5 -93.5h-55q22 32 37.5 66t22.5 71q-25 0 -42.5 17.5t-17.5 42.5t17.5 42.5t42.5 17.5t42.5 -17.5t17.5 -42.5zM373 50q0 -55 -17.5 -103.5t-47.5 -93.5h-55q22 32 37.5 66t22.5 71q-25 0 -42.5 17.5t-17.5 42.5t17.5 42.5t42.5 17.5 t42.5 -17.5t17.5 -42.5z" />
<glyph unicode="&#x2022;" horiz-adv-x="327" d="M247 267q0 -35 -24.5 -59.5t-59.5 -24.5t-59 24.5t-24 59.5t24 59t59 24t59.5 -24t24.5 -59z" />
<glyph unicode="&#x2026;" horiz-adv-x="920" d="M153 110q25 0 42.5 -17.5t17.5 -42.5t-17.5 -42.5t-42.5 -17.5t-42.5 17.5t-17.5 42.5t17.5 42.5t42.5 17.5zM460 110q25 0 42.5 -17.5t17.5 -42.5t-17.5 -42.5t-42.5 -17.5t-42.5 17.5t-17.5 42.5t17.5 42.5t42.5 17.5zM767 110q25 0 42.5 -17.5t17.5 -42.5t-17.5 -42.5 t-42.5 -17.5t-42.5 17.5t-17.5 42.5t17.5 42.5t42.5 17.5z" />
<glyph unicode="&#x202f;" horiz-adv-x="173" />
<glyph unicode="&#x2039;" horiz-adv-x="413" d="M282 0l-202 233l202 234h68l-202 -234l202 -233h-68z" />
<glyph unicode="&#x203a;" horiz-adv-x="400" d="M135 0h-68l201 233l-201 234h68l201 -234z" />
<glyph unicode="&#x205f;" horiz-adv-x="217" />
<glyph unicode="&#x20ac;" horiz-adv-x="539" d="M499 17q-40 -12 -83.5 -19.5t-78.5 -7.5q-71 0 -126 21.5t-93 61.5t-58 97.5t-20 129.5t20 129.5t58 97.5t93 61.5t126 21.5q35 0 78.5 -7.5t83.5 -19.5v-52q-40 12 -83.5 19.5t-78.5 7.5q-184 0 -227 -163h311v-47h-319q-3 -23 -3 -48q0 -26 3 -48h319v-47h-311 q43 -163 227 -163q35 0 78.5 7.5t83.5 19.5v-52z" />
<glyph unicode="&#x2122;" horiz-adv-x="629" d="M544 300l-23 250l-87 -122h-20l-86 122l-24 -250h-34l30 300h31l93 -132l93 132h32l30 -300h-35zM159 568v-268h-35v268h-104v32h243v-32h-104z" />
</font>
</defs>
</svg>
