<?xml version="1.0" standalone="no"?>
<!DOCTYPE svg PUBLIC "-//W3C//DTD SVG 1.1//EN" "http://www.w3.org/Graphics/SVG/1.1/DTD/svg11.dtd" >
<svg xmlns="http://www.w3.org/2000/svg">
<metadata>
This is a custom SVG webfont generated by Font Squirrel.
Designer    : Yamaoka Yasuhiro
Foundry     : YOFonts
Foundry URL : www.yoworks.com
</metadata>
<defs>
<font id="webfontYoG6XB2H" horiz-adv-x="480" >
<font-face units-per-em="1000" ascent="800" descent="-200" />
<missing-glyph horiz-adv-x="307" />
<glyph unicode=" "  horiz-adv-x="307" />
<glyph unicode="&#x09;" horiz-adv-x="307" />
<glyph unicode="&#xa0;" horiz-adv-x="307" />
<glyph unicode="!" horiz-adv-x="307" d="M233 67q0 -34 -23 -57t-57 -23q-33 0 -56.5 23t-23.5 57q0 33 23.5 56.5t56.5 23.5q34 0 57 -23.5t23 -56.5zM220 200h-133v400h133v-400z" />
<glyph unicode="&#x22;" horiz-adv-x="507" d="M233 600q0 -60 -19.5 -118t-53.5 -115h-93q23 38 39.5 77t24.5 79q-25 8 -41.5 28.5t-16.5 48.5q0 33 23.5 56.5t56.5 23.5q34 0 57 -23.5t23 -56.5zM433 600q0 -60 -19.5 -118t-53.5 -115h-93q23 38 39.5 77t24.5 79q-25 8 -41.5 28.5t-16.5 48.5q0 33 23.5 56.5 t56.5 23.5q34 0 57 -23.5t23 -56.5z" />
<glyph unicode="#" d="M382 413l-26 -93h49v-107h-78l-22 -80h-94l22 80h-71l-22 -80h-93l22 80h-49v107h78l26 93h-49v107h78l22 80h94l-22 -80h71l22 80h93l-22 -80h49v-107h-78zM217 413l-26 -93h72l26 93h-72z" />
<glyph unicode="$" horiz-adv-x="544" d="M517 190q0 -31 -11.5 -62t-35 -57.5t-59 -46.5t-83.5 -30v-127h-113v121q-45 2 -85.5 9.5t-86.5 21.5v120q55 -16 102.5 -24t103.5 -8q33 0 56 6.5t37.5 16.5t21.5 21.5t7 21.5q0 28 -23.5 42.5t-75.5 14.5q-128 0 -186.5 45t-58.5 135q0 31 11.5 61.5t35 57.5t58.5 47 t83 30v127h113v-120q45 -2 85.5 -10t87.5 -22v-120q-55 16 -102.5 24t-103.5 8q-33 0 -56 -6.5t-37.5 -16.5t-21.5 -21.5t-7 -21.5q0 -28 23.5 -42.5t75.5 -14.5q128 0 186.5 -45t58.5 -135z" />
<glyph unicode="%" horiz-adv-x="667" d="M153 0h-120l480 600h120zM341 469q0 -65 -40.5 -105t-113.5 -40t-113.5 40t-40.5 105q0 64 40.5 104t113.5 40t113.5 -40t40.5 -104zM240 469q0 58 -53 58t-53 -58q0 -59 53 -59t53 59zM633 131q0 -64 -40 -104t-113 -40t-113.5 40t-40.5 104q0 65 40.5 105t113.5 40 t113 -40t40 -105zM533 131q0 59 -53 59t-53 -59q0 -58 53 -58t53 58z" />
<glyph unicode="&#x26;" horiz-adv-x="587" d="M580 0q-20 -5 -40 -5q-17 0 -34 3q-38 8 -77 34q-68 -45 -169 -45q-63 0 -109.5 12t-77 34t-45.5 52.5t-15 67.5q0 32 12 58t31.5 48t45 40.5t51.5 35.5q-53 72 -53 132q0 64 42.5 105t117.5 41q76 0 118 -38.5t42 -107.5q0 -25 -9 -45.5t-24 -38.5t-34.5 -33t-41.5 -29 l104 -120q5 23 5 46v13h120v-13q0 -75 -33 -132q20 -11 43 -11q14 0 30 5v-109zM302 467q0 22 -11.5 34t-30.5 12q-20 0 -31 -13t-11 -33q0 -17 8 -34.5t23 -38.5q23 17 38 34.5t15 38.5zM216 259q-27 -20 -45 -42t-18 -50q0 -32 27 -54.5t80 -22.5q47 0 85 19z" />
<glyph unicode="'" horiz-adv-x="307" d="M233 600q0 -60 -19.5 -118t-53.5 -115h-93q23 38 39.5 77t24.5 79q-25 8 -41.5 28.5t-16.5 48.5q0 33 23.5 56.5t56.5 23.5q34 0 57 -23.5t23 -56.5z" />
<glyph unicode="(" horiz-adv-x="433" d="M407 -280q-59 0 -121.5 29t-114.5 91t-85 159t-33 234t33 234.5t85 159.5t114.5 91t121.5 29v-107q-20 0 -45 -8t-51 -27t-51 -50t-44 -76t-31 -106t-12 -140q0 -118 25.5 -196.5t61.5 -125t76.5 -65.5t70.5 -19v-107z" />
<glyph unicode=")" horiz-adv-x="433" d="M380 233q0 -91 -15.5 -164.5t-41.5 -130.5t-61 -98.5t-74 -68t-80.5 -39t-80.5 -12.5v107q30 0 70 19t76.5 65.5t61.5 125t25 196.5t-25 196.5t-61.5 125.5t-76.5 66t-70 19v107q39 0 80.5 -12.5t80.5 -39.5t74 -68t61 -98t41.5 -131t15.5 -165z" />
<glyph unicode="*" d="M281 433l191 -64l-60 -104l-152 133l40 -198h-120l40 198l-152 -133l-60 104l191 64l-191 65l60 104l152 -133l-40 198h120l-40 -198l152 133l60 -104z" />
<glyph unicode="+" d="M293 213v-133h-106v133h-134v107h134v133h106v-133h134v-107h-134z" />
<glyph unicode="," horiz-adv-x="307" d="M233 67q0 -60 -19.5 -118.5t-53.5 -115.5h-93q23 38 39.5 77t24.5 80q-25 7 -41.5 28t-16.5 49q0 33 23.5 56.5t56.5 23.5q34 0 57 -23.5t23 -56.5z" />
<glyph unicode="-" d="M53 213v107h374v-107h-374z" />
<glyph unicode="." horiz-adv-x="307" d="M233 67q0 -34 -23 -57t-57 -23q-33 0 -56.5 23t-23.5 57q0 33 23.5 56.5t56.5 23.5q34 0 57 -23.5t23 -56.5z" />
<glyph unicode="/" horiz-adv-x="527" d="M39 -267h-126l501 1000h126z" />
<glyph unicode="0" horiz-adv-x="533" d="M500 300q0 -71 -14.5 -129t-43.5 -99t-73 -63t-102 -22q-59 0 -102.5 22t-73 63t-44 99t-14.5 129t14.5 129t44 99t73 63t102.5 22q58 0 102 -22t73 -63t43.5 -99t14.5 -129zM360 300q0 98 -20.5 149t-72.5 51q-53 0 -73.5 -51t-20.5 -149t20.5 -149t73.5 -51 q52 0 72.5 51t20.5 149z" />
<glyph unicode="1" horiz-adv-x="533" d="M380 0h-133v401q-87 -58 -174 -86v133q67 23 125.5 62t113.5 91l68 -1v-600z" />
<glyph unicode="2" horiz-adv-x="533" d="M340 412q0 47 -27 67.5t-83 20.5q-41 0 -78 -6t-72 -17v113q35 11 72 17t78 6q58 0 104 -14t78.5 -40t50 -63.5t17.5 -83.5q0 -58 -22.5 -93.5t-57 -57.5t-74 -35.5t-74 -27t-57 -33t-22.5 -52.5h320v-113h-453v57q0 63 13 105.5t34 70t48 43.5t55 26.5t55 18t48 18 t34 27.5t13 46z" />
<glyph unicode="3" horiz-adv-x="533" d="M480 122q0 -94 -68 -148t-195 -54q-41 0 -84.5 6t-79.5 17v114q36 -11 79.5 -17.5t84.5 -6.5q66 0 94.5 20.5t28.5 68.5q0 44 -24 66t-63 22h-126v113h126q39 0 63 22t24 67q0 47 -28 67.5t-89 20.5q-41 0 -81 -6t-75 -17v113q35 11 75 17t81 6q122 0 189.5 -53.5 t67.5 -147.5q0 -23 -7 -45.5t-19 -42t-29 -34.5t-37 -23q20 -8 37 -23.5t29 -35t19 -42t7 -44.5z" />
<glyph unicode="4" horiz-adv-x="533" d="M413 107v-107h-126v107h-247v81q0 126 57.5 247.5t169.5 231.5h156q-53 -48 -97 -97.5t-76.5 -103.5t-52 -115t-23.5 -131h113v167h126v-167h87v-113h-87z" />
<glyph unicode="5" horiz-adv-x="533" d="M467 600v-113h-254v-139q5 1 9 1.5t8 0.5q58 0 104.5 -15.5t78.5 -44t49.5 -68t17.5 -87.5t-17.5 -87.5t-51 -68t-82.5 -44t-112 -15.5q-41 0 -84.5 6t-79.5 17v114q36 -11 79.5 -17.5t84.5 -6.5q66 0 94.5 27t28.5 75t-27.5 75t-82.5 27q-19 0 -40 -2t-41 -5.5t-38 -8 t-31 -8.5v387h387z" />
<glyph unicode="6" horiz-adv-x="533" d="M493 188q0 -46 -17 -83t-47.5 -63.5t-72 -40.5t-89.5 -14q-49 0 -90.5 14t-72 40.5t-47.5 63.5t-17 83q0 126 57.5 247.5t169.5 231.5h156q-71 -66 -129 -138t-90 -158q18 9 40 14t49 5q43 0 79.5 -14.5t63.5 -41t42 -63.5t15 -83zM353 188q0 45 -23.5 67t-62.5 22 t-63 -22t-24 -67q0 -44 24 -66t63 -22t62.5 22t23.5 66z" />
<glyph unicode="7" horiz-adv-x="533" d="M507 533q-110 -137 -158.5 -286t-48.5 -314h-133q0 74 13 150.5t35.5 149t52.5 137.5t65 117h-293v113h467v-67z" />
<glyph unicode="8" horiz-adv-x="533" d="M500 187q0 -45 -17.5 -81.5t-48 -63t-73.5 -41t-94 -14.5t-94 14.5t-74 41t-48.5 63t-17.5 81.5q0 52 23.5 93.5t65.5 67.5q-35 26 -55 63t-20 82q0 42 16 76.5t45 59t69.5 38t89.5 13.5q48 0 88.5 -13.5t70 -38t45.5 -59t16 -76.5q0 -45 -20.5 -82t-55.5 -63 q42 -26 65.5 -67.5t23.5 -93.5zM347 485q0 36 -21.5 59t-58.5 23q-38 0 -59 -23t-21 -59t21 -59t59 -23q37 0 58.5 23t21.5 59zM360 195q0 44 -24.5 69.5t-68.5 25.5t-69 -25.5t-25 -69.5t25 -69.5t69 -25.5t68.5 25.5t24.5 69.5z" />
<glyph unicode="9" horiz-adv-x="533" d="M493 412q0 -126 -57.5 -247.5t-168.5 -231.5h-157q72 66 129.5 138t89.5 158q-18 -9 -39.5 -14t-49.5 -5q-43 0 -79.5 14.5t-63.5 41t-42 63.5t-15 83t17 83t47.5 63.5t72 40.5t90.5 14q48 0 89.5 -14t72 -40.5t47.5 -63.5t17 -83zM353 412q0 44 -23.5 66t-62.5 22 t-63 -22t-24 -66q0 -45 24 -67t63 -22t62.5 22t23.5 67z" />
<glyph unicode=":" horiz-adv-x="307" d="M233 67q0 -34 -23 -57t-57 -23q-33 0 -56.5 23t-23.5 57q0 33 23.5 56.5t56.5 23.5q34 0 57 -23.5t23 -56.5zM233 400q0 -33 -23 -56.5t-57 -23.5q-33 0 -56.5 23.5t-23.5 56.5t23.5 56.5t56.5 23.5q34 0 57 -23.5t23 -56.5z" />
<glyph unicode=";" horiz-adv-x="307" d="M233 67q0 -60 -19.5 -118.5t-53.5 -115.5h-93q23 38 39.5 77t24.5 80q-25 7 -41.5 28t-16.5 49q0 33 23.5 56.5t56.5 23.5q34 0 57 -23.5t23 -56.5zM233 400q0 -33 -23 -56.5t-57 -23.5q-33 0 -56.5 23.5t-23.5 56.5t23.5 56.5t56.5 23.5q34 0 57 -23.5t23 -56.5z" />
<glyph unicode="&#x3c;" d="M273 0l-201 233l201 234h152l-202 -234l202 -233h-152z" />
<glyph unicode="=" d="M53 133v107h374v-107h-374zM53 293v107h374v-107h-374z" />
<glyph unicode="&#x3e;" d="M207 0h-152l202 233l-202 234h152l201 -234z" />
<glyph unicode="?" horiz-adv-x="467" d="M440 447q0 -39 -12 -64.5t-30 -43t-39.5 -30.5t-39.5 -27t-30 -33t-12 -49h-134q0 41 11.5 69.5t29 49t38.5 35.5l38 28q17 14 28.5 29t11.5 36t-21 37t-69 16q-34 0 -73 -6.5t-84 -17.5v113q41 11 80.5 17.5t76.5 6.5q52 0 94.5 -12.5t72.5 -34.5t46.5 -52.5t16.5 -66.5 zM290 67q0 -34 -23.5 -57t-56.5 -23t-56.5 23t-23.5 57q0 33 23.5 56.5t56.5 23.5t56.5 -23.5t23.5 -56.5z" />
<glyph unicode="@" horiz-adv-x="853" d="M827 360q0 -50 -12.5 -91t-38 -70t-65.5 -45t-94 -16q-28 0 -51 6.5t-37 17.5q-20 -11 -46 -17.5t-52 -6.5q-39 0 -73 11.5t-58.5 32.5t-38.5 51t-14 67t14 67t38.5 51t58.5 32.5t73 11.5q44 0 90.5 -8t87.5 -21v-163q0 -23 40 -23q26 0 42 23.5t16 89.5q0 47 -18.5 86 t-54 67.5t-87.5 44t-120 15.5q-134 0 -207 -70.5t-73 -202.5t73 -202.5t207 -70.5q82 0 160 26v-106q-16 -6 -36 -10.5t-41.5 -8.5t-42.5 -6t-40 -2q-87 0 -160.5 27t-127 77t-83 120t-29.5 156t29.5 156t83 120t127 77t160.5 27q88 0 161.5 -25t126.5 -68.5t82.5 -101.5 t29.5 -125zM489 351q-24 9 -54 9q-27 0 -45 -16t-18 -44t18 -44t45 -16q17 0 29 2t25 7v102z" />
<glyph unicode="A" horiz-adv-x="568" d="M443 0l-48 133h-222l-48 -133h-152l239 600h144l239 -600h-152zM284 447l-69 -194h138z" />
<glyph unicode="B" horiz-adv-x="560" d="M520 170q0 -79 -55 -124.5t-158 -45.5h-240v600h240q103 0 158 -45.5t55 -124.5q0 -39 -19.5 -73t-52.5 -57q33 -23 52.5 -57t19.5 -73zM380 422q0 65 -73 65h-107v-130h107q73 0 73 65zM380 178q0 65 -73 65h-107v-130h107q73 0 73 65z" />
<glyph unicode="C" horiz-adv-x="544" d="M517 13q-16 -5 -36 -10t-41.5 -8.5t-42.5 -5.5t-40 -2q-81 0 -142.5 22.5t-103 63.5t-63 98.5t-21.5 128.5q0 70 21.5 128t63 99t103 63.5t142.5 22.5q19 0 40 -2t42.5 -5.5t41.5 -8.5t36 -10v-120q-78 26 -160 26q-94 0 -139 -47t-45 -146t45 -146t139 -47q82 0 160 26 v-120z" />
<glyph unicode="D" horiz-adv-x="647" d="M620 300q0 -143 -81.5 -221.5t-235.5 -78.5h-236v600h236q154 0 235.5 -78.5t81.5 -221.5zM473 300q0 97 -41 142t-129 45h-103v-374h103q88 0 129 45t41 142z" />
<glyph unicode="E" horiz-adv-x="533" d="M67 0v600h413v-113h-277v-130h277v-114h-277v-130h277v-113h-413z" />
<glyph unicode="F" horiz-adv-x="507" d="M203 243v-243h-136v600h413v-113h-277v-130h277v-114h-277z" />
<glyph unicode="G" horiz-adv-x="597" d="M544 13q-16 -5 -38 -10t-46 -8.5t-47.5 -5.5t-42.5 -2q-84 0 -148 22t-107.5 63t-65.5 99t-22 129t22 129t65.5 99t107.5 63t148 22q19 0 42.5 -2t47.5 -5.5t46 -8.5t38 -10v-120q-39 13 -85 19.5t-89 6.5q-100 0 -148.5 -46.5t-48.5 -146.5t48.5 -146.5t148.5 -46.5h18 q10 0 19 1v152h137v-247z" />
<glyph unicode="H" horiz-adv-x="660" d="M460 0v233h-260v-233h-133v600h133v-233h260v233h133v-600h-133z" />
<glyph unicode="I" horiz-adv-x="273" d="M207 0h-140v600h140v-600z" />
<glyph unicode="J" horiz-adv-x="300" d="M233 -100q0 -41 -15.5 -74.5t-44 -57t-69.5 -36t-91 -12.5q-43 0 -80 13v114q32 -14 80 -14q37 0 58.5 18t21.5 49v700h140v-700z" />
<glyph unicode="K" horiz-adv-x="544" d="M415 0l-140 195l-75 -101v-94h-133v600h133v-310l215 310h162l-223 -300l223 -300h-162z" />
<glyph unicode="L" horiz-adv-x="493" d="M67 0v600h140v-487h273v-113h-413z" />
<glyph unicode="M" horiz-adv-x="731" d="M551 0l-31 403l-122 -160h-65l-122 160l-31 -403h-140l56 600h127l142 -200l143 200h127l56 -600h-140z" />
<glyph unicode="N" horiz-adv-x="660" d="M460 0l-260 373v-373h-133v600h133l260 -373v373h133v-600h-133z" />
<glyph unicode="O" horiz-adv-x="660" d="M633 300q0 -69 -20.5 -126.5t-59 -99t-95 -64.5t-128.5 -23t-128.5 23t-95 64.5t-59 99t-20.5 126.5t20.5 126.5t59 99t95 64.5t128.5 23t128.5 -23t95 -64.5t59 -99t20.5 -126.5zM487 300q0 193 -157 193t-157 -193t157 -193t157 193z" />
<glyph unicode="P" horiz-adv-x="520" d="M520 403q0 -94 -60.5 -145t-166.5 -51h-93v-207h-133v600h226q106 0 166.5 -51.5t60.5 -145.5zM380 403q0 43 -22.5 63.5t-64.5 20.5h-93v-167h93q42 0 64.5 20.5t22.5 62.5z" />
<glyph unicode="Q" horiz-adv-x="660" d="M725 -267q-17 -6 -38 -9.5t-42 -3.5q-62 0 -108 20.5t-73 58.5l-134 188q-72 0 -128.5 23t-95 64.5t-59 99t-20.5 126.5t20.5 126.5t59 99t95 64.5t128.5 23t128.5 -23t95 -64.5t59 -99t20.5 -126.5q0 -102 -43.5 -177.5t-124.5 -110.5l112 -151q11 -13 28 -20.5t40 -7.5 q49 0 80 14v-114zM487 300q0 193 -157 193t-157 -193t157 -193t157 193z" />
<glyph unicode="R" horiz-adv-x="560" d="M415 0l-148 207h-67v-207h-133v600h226q106 0 166.5 -51.5t60.5 -145.5q0 -65 -29 -109.5t-83 -66.5l169 -227h-162zM380 403q0 43 -22.5 63.5t-64.5 20.5h-93v-167h93q42 0 64.5 20.5t22.5 62.5z" />
<glyph unicode="S" horiz-adv-x="544" d="M517 190q0 -37 -16.5 -73t-50 -65t-84 -47t-117.5 -18q-56 0 -103.5 8t-102.5 24v120q55 -16 102.5 -24t103.5 -8q33 0 56 6.5t37.5 16.5t21.5 21.5t7 21.5q0 28 -23.5 42.5t-75.5 14.5q-128 0 -186.5 45t-58.5 135q0 37 16.5 73t50 65t83.5 47t118 18q56 0 103.5 -8 t102.5 -24v-120q-55 16 -102.5 24t-103.5 8q-33 0 -56 -6.5t-37.5 -16.5t-21.5 -21.5t-7 -21.5q0 -28 23.5 -42.5t75.5 -14.5q128 0 186.5 -45t58.5 -135z" />
<glyph unicode="T" horiz-adv-x="527" d="M333 487v-487h-140v487h-180v113h500v-113h-180z" />
<glyph unicode="U" horiz-adv-x="647" d="M587 233q0 -56 -17.5 -101.5t-51 -77.5t-83 -49.5t-112.5 -17.5t-112 17.5t-82.5 49.5t-51 77.5t-17.5 101.5v367h133v-367q0 -63 33.5 -94.5t96.5 -31.5q130 0 130 126v367h134v-367z" />
<glyph unicode="V" horiz-adv-x="568" d="M356 0h-144l-239 600h152l159 -430l159 430h152z" />
<glyph unicode="W" horiz-adv-x="1049" d="M837 0h-144l-168 424l-169 -424h-144l-239 600h152l159 -430l171 430h140l170 -430l159 430h152z" />
<glyph unicode="X" horiz-adv-x="544" d="M415 0l-143 200l-143 -200h-162l223 300l-223 300h162l143 -200l143 200h162l-223 -300l223 -300h-162z" />
<glyph unicode="Y" horiz-adv-x="504" d="M319 279v-279h-134v279l-238 321h162l143 -200l143 200h162z" />
<glyph unicode="Z" horiz-adv-x="578" d="M241 120h304v-120h-512v67l303 413h-303v120h512v-67z" />
<glyph unicode="[" d="M127 -267v1000h320v-113h-194v-773h194v-114h-320z" />
<glyph unicode="\" horiz-adv-x="527" d="M487 -267l-500 1000h126l500 -1000h-126z" />
<glyph unicode="]" d="M33 -267v114h194v773h-194v113h320v-1000h-320z" />
<glyph unicode="^" horiz-adv-x="267" d="M183 533l-50 124l-50 -124h-110l87 200h147l86 -200h-110z" />
<glyph unicode="_" d="M53 0v107h374v-107h-374z" />
<glyph unicode="`" horiz-adv-x="267" d="M80 533l-87 200h120l87 -200h-120z" />
<glyph unicode="a" horiz-adv-x="547" d="M547 0q-16 -5 -38 -9t-42 -4q-35 0 -61.5 9.5t-42.5 28.5q-29 -17 -63.5 -27.5t-72.5 -10.5q-46 0 -82 11.5t-61 31.5t-38 47.5t-13 59.5t13 59.5t38 47.5t61 31.5t82 11.5h106v13q0 30 -24 48.5t-72 18.5q-34 0 -73 -6.5t-84 -17.5v113q41 10 80.5 17t76.5 7 q52 0 94.5 -12t72.5 -35t46.5 -56.5t16.5 -76.5v-166q0 -19 8 -26.5t25 -7.5q13 0 24.5 3t22.5 7v-110zM333 187h-106q-31 0 -45.5 -13.5t-14.5 -36.5q0 -50 60 -50q26 0 54 7.5t52 21.5v71z" />
<glyph unicode="b" horiz-adv-x="553" d="M520 233q0 -54 -16.5 -99.5t-47 -78t-75 -50.5t-101.5 -18q-48 0 -106 8.5t-107 21.5v716h133v-266q18 5 39 9t41 4q57 0 101.5 -18t75 -50.5t47 -78t16.5 -100.5zM380 233q0 66 -26 100t-74 34q-22 0 -42.5 -2.5t-37.5 -7.5v-248q17 -4 37.5 -6.5t42.5 -2.5 q48 0 74 33.5t26 99.5z" />
<glyph unicode="c" horiz-adv-x="460" d="M420 8q-26 -8 -61.5 -14.5t-65.5 -6.5q-62 0 -110.5 17.5t-81.5 49.5t-50.5 77.5t-17.5 101.5q0 57 17.5 102.5t50.5 77.5t81.5 49.5t110.5 17.5q30 0 65.5 -6.5t61.5 -14.5v-114q-31 11 -62 16.5t-65 5.5q-57 0 -88.5 -31t-31.5 -103q0 -71 31.5 -102t88.5 -31 q34 0 65 5.5t62 15.5v-113z" />
<glyph unicode="d" horiz-adv-x="567" d="M567 0q-16 -5 -38 -9t-42 -4q-63 0 -96 29q-27 -14 -56 -21.5t-62 -7.5q-57 0 -101.5 18t-75 50.5t-47 78t-16.5 99.5q0 55 16.5 100.5t47 78t75 50.5t101.5 18q21 0 43 -3t37 -6v262h134v-599q0 -19 8 -26.5t25 -7.5q13 0 24.5 3t22.5 7v-110zM353 357q-17 5 -37.5 7.5 t-42.5 2.5q-48 0 -74 -34t-26 -100t26 -99.5t74 -33.5q24 0 42 4t38 12v241z" />
<glyph unicode="e" horiz-adv-x="520" d="M487 233q0 -24 -3 -46h-313q9 -46 45.5 -66.5t90.5 -20.5q38 0 73 7t67 18v-113q-32 -11 -68.5 -18t-71.5 -7q-65 0 -115.5 17t-86 48.5t-54 77.5t-18.5 103q0 55 16 101t46 78t72.5 50t95.5 18q54 0 95.5 -18t70 -50t43.5 -78t15 -101zM355 293q-7 42 -32 62t-60 20 t-59.5 -22t-30.5 -60h182z" />
<glyph unicode="f" horiz-adv-x="420" d="M240 353v-353h-133v353h-100v114h100v100q0 41 15.5 74.5t43.5 57t67 36t87 12.5q20 0 41.5 -4t38.5 -10v-113q-33 13 -80 13q-37 0 -58.5 -18t-21.5 -48v-100h160v-114h-160z" />
<glyph unicode="g" horiz-adv-x="493" d="M460 300q0 -63 -35 -106.5t-93 -61.5q-32 -10 -32 -32t32 -32q60 -19 94 -62t34 -106q0 -41 -15.5 -74.5t-43.5 -57t-67 -36t-87 -12.5t-87 12.5t-67.5 36t-44 57t-15.5 74.5q0 67 39.5 112t107.5 61q-5 3 -9 10.5t-4 16.5t4 16.5t9 10.5q-68 16 -107.5 61t-39.5 112 q0 41 15.5 74.5t44 57t67.5 36t87 12.5q47 0 105.5 -8.5t107.5 -21.5v-150zM327 357q-17 5 -38 7.5t-42 2.5q-37 0 -58.5 -18t-21.5 -49t21.5 -49t58.5 -18t58.5 18t21.5 49v57zM327 -100q0 31 -21.5 49t-58.5 18t-58.5 -18t-21.5 -49t21.5 -49t58.5 -18t58.5 18t21.5 49z " />
<glyph unicode="h" horiz-adv-x="553" d="M360 0v300q0 31 -21.5 49t-58.5 18q-22 0 -42.5 -2.5t-37.5 -7.5v-357h-133v733h133v-266q18 5 39 9t41 4q48 0 87 -12.5t67 -36t43.5 -57t15.5 -74.5v-300h-133z" />
<glyph unicode="i" horiz-adv-x="267" d="M207 633q0 -30 -21.5 -51.5t-52.5 -21.5q-30 0 -51.5 21.5t-21.5 51.5q0 31 21.5 52.5t51.5 21.5q31 0 52.5 -21.5t21.5 -52.5zM200 0h-133v467h133v-467z" />
<glyph unicode="j" horiz-adv-x="280" d="M220 633q0 -30 -21.5 -51.5t-51.5 -21.5q-31 0 -52.5 21.5t-21.5 51.5q0 31 21.5 52.5t52.5 21.5q30 0 51.5 -21.5t21.5 -52.5zM213 -147q0 -69 -35 -101t-98 -32q-20 0 -42 4t-38 9v110q10 -4 22 -7t25 -3q33 0 33 34v600h133v-614z" />
<glyph unicode="k" horiz-adv-x="520" d="M370 0l-121 145l-49 -56v-89h-133v733h133v-467l170 201h157l-202 -234l202 -233h-157z" />
<glyph unicode="l" horiz-adv-x="280" d="M280 0q-16 -5 -38 -9t-42 -4q-63 0 -98 32t-35 101v613h133v-599q0 -19 8 -26.5t25 -7.5q13 0 25 3t22 7v-110z" />
<glyph unicode="m" horiz-adv-x="847" d="M653 0v300q0 31 -21.5 49t-58.5 18t-58.5 -18t-21.5 -49v-300h-133v300q0 31 -21.5 49t-58.5 18q-22 0 -42.5 -2.5t-37.5 -7.5v-357h-133v450q49 13 107 21.5t106 8.5q51 0 89.5 -13.5t64.5 -35.5q23 21 58.5 35t80.5 14q48 0 87 -12.5t67.5 -36t44 -57t15.5 -74.5v-300 h-134z" />
<glyph unicode="n" horiz-adv-x="553" d="M360 0v300q0 31 -21.5 49t-58.5 18q-22 0 -42.5 -2.5t-37.5 -7.5v-357h-133v450q49 13 107 21.5t106 8.5t87 -12.5t67 -36t43.5 -57t15.5 -74.5v-300h-133z" />
<glyph unicode="o" horiz-adv-x="547" d="M513 233q0 -54 -16 -99.5t-47 -78t-75.5 -50.5t-101.5 -18t-101.5 18t-75 50.5t-47 78t-16.5 99.5q0 55 16.5 100.5t47 78t75 50.5t101.5 18t101.5 -18t75.5 -50.5t47 -78t16 -100.5zM373 233q0 66 -26 100t-74 34t-74 -34t-26 -100t26 -99.5t74 -33.5t74 33.5t26 99.5z " />
<glyph unicode="p" horiz-adv-x="553" d="M520 233q0 -54 -16.5 -99.5t-47 -78t-75 -50.5t-101.5 -18q-20 0 -41 4t-39 9v-267h-133v717q49 13 107 21.5t106 8.5q57 0 101.5 -18t75 -50.5t47 -78t16.5 -100.5zM380 233q0 66 -26 100t-74 34q-22 0 -42.5 -2.5t-37.5 -7.5v-248q17 -4 37.5 -6.5t42.5 -2.5 q48 0 74 33.5t26 99.5z" />
<glyph unicode="q" horiz-adv-x="553" d="M567 -267q-16 -5 -38 -9t-42 -4q-63 0 -98.5 32t-35.5 101v147q-18 -5 -39 -9t-41 -4q-57 0 -101.5 18t-75 50.5t-47 78t-16.5 99.5q0 55 16.5 100.5t47 78t75 50.5t101.5 18q48 0 106 -8.5t108 -21.5v-583q0 -34 33 -34q13 0 24.5 3t22.5 7v-110zM353 357 q-17 5 -37.5 7.5t-42.5 2.5q-48 0 -74 -34t-26 -100t26 -99.5t74 -33.5q22 0 42.5 2.5t37.5 6.5v248z" />
<glyph unicode="r" horiz-adv-x="423" d="M407 345q-26 9 -61.5 15.5t-65.5 6.5q-22 0 -42.5 -2.5t-37.5 -7.5v-357h-133v450q49 13 107 21.5t106 8.5q30 0 65.5 -6.5t61.5 -14.5v-114z" />
<glyph unicode="s" horiz-adv-x="447" d="M413 147q0 -30 -13.5 -59t-39.5 -51.5t-65.5 -36t-91.5 -13.5q-45 0 -83.5 7t-79.5 18v113q44 -12 86 -18.5t77 -6.5q44 0 59.5 11.5t15.5 25.5t-12.5 23.5t-42.5 9.5q-91 0 -140.5 36.5t-49.5 113.5q0 30 13.5 58.5t40 51t65.5 36.5t91 14q45 0 84 -7t80 -18v-114 q-44 13 -86 19.5t-78 6.5q-44 0 -59.5 -11.5t-15.5 -25.5t13 -23.5t42 -9.5q91 0 140.5 -36.5t49.5 -113.5z" />
<glyph unicode="t" horiz-adv-x="440" d="M400 0q-37 -13 -80 -13q-48 0 -87 12.5t-67 36t-43.5 57t-15.5 74.5v186h-100v114h100v123l133 20v-143h160v-114h-160v-186q0 -31 21.5 -49t58.5 -18q47 0 80 13v-113z" />
<glyph unicode="u" horiz-adv-x="567" d="M567 0q-16 -5 -38 -9t-42 -4q-63 0 -96 29q-27 -14 -56 -21.5t-62 -7.5q-48 0 -87 12.5t-67 36t-43.5 57t-15.5 74.5v300h133v-300q0 -31 21.5 -49t58.5 -18q24 0 42 4t38 12v351h134v-333q0 -19 8 -26.5t25 -7.5q13 0 24.5 3t22.5 7v-110z" />
<glyph unicode="v" horiz-adv-x="500" d="M312 0h-124l-188 467h145l105 -297l105 297h145z" />
<glyph unicode="w" horiz-adv-x="869" d="M681 0h-124l-122 304l-123 -304h-124l-188 467h145l105 -297l119 297h131l119 -297l105 297h145z" />
<glyph unicode="x" horiz-adv-x="507" d="M350 0l-97 139l-96 -139h-157l175 233l-175 234h157l96 -139l97 139h157l-175 -234l175 -233h-157z" />
<glyph unicode="y" horiz-adv-x="500" d="M195 -267h-139l124 298l-180 436h147l103 -286l103 286h147z" />
<glyph unicode="z" d="M241 120h206v-120h-414v67l205 280h-205v120h414v-67z" />
<glyph unicode="{" horiz-adv-x="407" d="M353 -267q-15 -5 -37 -9t-43 -4q-62 0 -98 32q-29 26 -29 77q0 11 1 24l22 226q1 9 1 17q0 35 -18 54q-23 23 -65 23h-34v120h34q42 0 65 23q18 20 18 55q0 7 -1 16l-22 226q-1 13 -1 24q0 51 29 77q36 33 98 33q21 0 43 -4t37 -10v-110q-22 10 -47 10q-33 0 -33 -29v-5 l23 -212q1 -12 1 -24q0 -44 -21 -76q-28 -40 -77 -54q49 -14 77 -54q21 -32 21 -76q0 -12 -1 -24l-23 -212v-5q0 -29 33 -29q13 0 25 3t22 7v-110z" />
<glyph unicode="|" horiz-adv-x="320" d="M100 -267v1000h120v-1000h-120z" />
<glyph unicode="}" horiz-adv-x="407" d="M320 173q-43 0 -66 -23q-18 -19 -18 -54q0 -8 1 -17l23 -226q1 -11 1 -22q0 -52 -29 -79q-36 -32 -99 -32q-20 0 -42 4t-38 9v110q11 -4 22.5 -7t24.5 -3q17 0 26 8.5t7 25.5l-22 212q-1 12 -1 24q0 44 21 76q27 40 76 54q-49 14 -76 54q-21 32 -21 76q0 12 1 24l22 212 q2 17 -7 25.5t-26 8.5q-24 0 -47 -10v110q16 6 38 10t42 4q63 0 99 -33q29 -27 29 -79q0 -11 -1 -22l-23 -226q-1 -9 -1 -16q0 -35 18 -55q23 -23 66 -23h33v-120h-33z" />
<glyph unicode="~" d="M427 293q-27 -17 -51.5 -28.5t-55.5 -11.5q-32 0 -54.5 8.5t-40.5 18.5l-33 18q-15 9 -32 9q-32 0 -56 -11.5t-51 -28.5v106q27 18 51.5 29t55.5 11t54 -8.5t41 -18.5l33 -18q15 -8 32 -8q32 0 56 11.5t51 28.5v-107z" />
<glyph unicode="&#xa0;" />
<glyph unicode="&#xa1;" horiz-adv-x="307" d="M233 533q0 -33 -23 -56.5t-57 -23.5q-33 0 -56.5 23.5t-23.5 56.5q0 34 23.5 57t56.5 23q34 0 57 -23t23 -57zM220 0h-133v400h133v-400z" />
<glyph unicode="&#xa2;" horiz-adv-x="460" d="M420 75q-19 -7 -43.5 -12t-48.5 -8v-122h-113v129q-88 20 -135 82t-47 156t47 156t135 82v129h113v-122q24 -3 48.5 -8t43.5 -12v-113q-31 10 -62 15.5t-65 5.5q-57 0 -88.5 -30.5t-31.5 -102.5t31.5 -102.5t88.5 -30.5q34 0 65 5.5t62 15.5v-113z" />
<glyph unicode="&#xa3;" horiz-adv-x="533" d="M507 11q-41 -11 -83 -17.5t-84 -6.5q-36 0 -66.5 7.5t-58.5 21.5q-17 -15 -41 -22t-54 -7q-20 0 -42 4t-38 9v110q10 -4 22 -7t25 -3q17 0 25 7.5t8 26.5v106h-80v113h80v80q0 41 15.5 74.5t43.5 57t67 36t87 12.5q35 0 77 -5.5t77 -14.5v-113q-35 9 -77 14.5t-77 5.5 q-37 0 -58.5 -18t-21.5 -49v-80h180v-113h-180v-120q20 -10 40.5 -15t46.5 -5q40 0 81 6.5t86 17.5v-113z" />
<glyph unicode="&#xa5;" horiz-adv-x="504" d="M341 323h123v-113h-145v-210h-134v210h-145v113h123l-216 277h162l143 -200l143 200h162z" />
<glyph unicode="&#xa6;" horiz-adv-x="320" d="M220 267h-120v466h120v-466zM100 -267v467h120v-467h-120z" />
<glyph unicode="&#xa7;" horiz-adv-x="597" d="M544 -6q0 -37 -16.5 -73.5t-50 -65.5t-84 -47t-117.5 -18q-56 0 -104 8.5t-103 24.5v120q55 -16 103 -24.5t104 -8.5q33 0 56 6.5t37.5 16.5t21 22t6.5 22q0 28 -23 42.5t-75 14.5q-128 0 -187 45t-59 135q0 18 5 38t15.5 37.5t25 32t34.5 22.5q-39 19 -59.5 51t-20.5 82 q0 37 16.5 73t50 65t83.5 47t118 18q56 0 104 -8t103 -24v-120q-55 16 -103 24t-104 8q-32 0 -55 -6.5t-37.5 -16.5t-21.5 -21.5t-7 -21.5q0 -28 23 -42.5t76 -14.5q128 0 186.5 -45t58.5 -135q0 -18 -5 -38t-15 -37.5t-25 -32t-34 -22.5q39 -19 59 -51t20 -82zM397 240 q0 26 -20.5 41.5t-65.5 15.5q-30 0 -51 -7t-34.5 -17t-19.5 -21.5t-6 -21.5q0 -26 20.5 -41t66.5 -15q30 0 50.5 6.5t34 16.5t19.5 21.5t6 21.5z" />
<glyph unicode="&#xa8;" horiz-adv-x="267" d="M283 633q0 -28 -19.5 -47.5t-46.5 -19.5q-28 0 -47.5 19.5t-19.5 47.5q0 27 19.5 46.5t47.5 19.5q27 0 46.5 -19.5t19.5 -46.5zM117 633q0 -28 -19.5 -47.5t-47.5 -19.5t-47.5 19.5t-19.5 47.5q0 27 19.5 46.5t47.5 19.5t47.5 -19.5t19.5 -46.5z" />
<glyph unicode="&#xa9;" horiz-adv-x="787" d="M760 300q0 -76 -29 -143t-78.5 -116.5t-116.5 -78.5t-143 -29t-142.5 29t-116 78.5t-78.5 116.5t-29 143t29 143t78.5 116.5t116 78.5t142.5 29t143 -29t116.5 -78.5t78.5 -116.5t29 -143zM677 300q0 58 -22.5 110t-61 90t-90 60.5t-110.5 22.5t-110.5 -22.5t-89.5 -60.5 t-60.5 -90t-22.5 -110q0 -59 22.5 -110.5t60.5 -89.5t89.5 -60.5t110.5 -22.5t110.5 22.5t90 60.5t61 89.5t22.5 110.5zM520 109q-21 -8 -51 -13t-56 -5q-54 0 -95 15t-68.5 42.5t-42 66t-14.5 85.5t14.5 85.5t42 66t68.5 42.5t95 15q26 0 56 -5t51 -13v-80q-26 8 -52 13 t-55 5q-122 0 -122 -129t122 -129q29 0 55 5t52 13v-80z" />
<glyph unicode="&#xaa;" horiz-adv-x="458" d="M458 229q-13 -5 -30 -7.5t-34 -2.5q-58 0 -83 30q-23 -14 -51 -22t-58 -8q-81 0 -125 32t-44 88q0 24 10 46.5t30.5 39.5t52.5 27.5t76 10.5h75v6q0 20 -17.5 33t-49.5 13q-53 0 -125 -20v99q32 8 64 13.5t61 5.5q83 0 133.5 -37.5t50.5 -106.5v-126q0 -15 6 -21t20 -6 q11 0 20.5 2.5t17.5 5.5v-95zM307 67q0 -34 -23.5 -57t-56.5 -23q-34 0 -57 23t-23 57q0 33 23 56.5t57 23.5q33 0 56.5 -23.5t23.5 -56.5zM277 375h-75q-23 0 -34 -11t-11 -25q0 -34 45 -34q22 0 40 6t35 16v48z" />
<glyph unicode="&#xab;" d="M323 0l-100 233l100 234h134l-100 -234l100 -233h-134zM140 0l-100 233l100 234h133l-100 -234l100 -233h-133z" />
<glyph unicode="&#xad;" d="M53 213v107h374v-107h-374z" />
<glyph unicode="&#xae;" horiz-adv-x="787" d="M760 300q0 -76 -29 -143t-78.5 -116.5t-116.5 -78.5t-143 -29t-142.5 29t-116 78.5t-78.5 116.5t-29 143t29 143t78.5 116.5t116 78.5t142.5 29t143 -29t116.5 -78.5t78.5 -116.5t29 -143zM677 300q0 58 -22.5 110t-61 90t-90 60.5t-110.5 22.5t-110.5 -22.5t-89.5 -60.5 t-60.5 -90t-22.5 -110q0 -59 22.5 -110.5t60.5 -89.5t89.5 -60.5t110.5 -22.5t110.5 22.5t90 60.5t61 89.5t22.5 110.5zM481 100l-98 138h-45v-138h-89v400h151q71 0 111 -34t40 -97q0 -44 -19.5 -73.5t-54.5 -44.5l112 -151h-108zM458 369q0 55 -58 55h-62v-111h62 q58 0 58 56z" />
<glyph unicode="&#xaf;" d="M53 533v107h374v-107h-374z" />
<glyph unicode="&#xb0;" horiz-adv-x="453" d="M400 440q0 -36 -13.5 -67.5t-37 -55t-55 -37t-67.5 -13.5t-67.5 13.5t-55.5 37t-37.5 55t-13.5 67.5t13.5 67.5t37.5 55t55.5 37t67.5 13.5t67.5 -13.5t55 -37t37 -55t13.5 -67.5zM287 440q0 25 -17.5 42.5t-42.5 17.5t-42.5 -17.5t-17.5 -42.5t17.5 -42.5t42.5 -17.5 t42.5 17.5t17.5 42.5z" />
<glyph unicode="&#xb1;" d="M53 0v107h374v-107h-374zM293 263v-133h-106v133h-134v107h134v133h106v-133h134v-107h-134z" />
<glyph unicode="&#xb2;" horiz-adv-x="533" d="M340 412q0 47 -27 67.5t-83 20.5q-41 0 -78 -6t-72 -17v113q35 11 72 17t78 6q58 0 104 -14t78.5 -40t50 -63.5t17.5 -83.5q0 -58 -22.5 -93.5t-57 -57.5t-74 -35.5t-74 -27t-57 -33t-22.5 -52.5h320v-113h-453v57q0 63 13 105.5t34 70t48 43.5t55 26.5t55 18t48 18 t34 27.5t13 46z" />
<glyph unicode="&#xb3;" horiz-adv-x="533" d="M480 122q0 -94 -68 -148t-195 -54q-41 0 -84.5 6t-79.5 17v114q36 -11 79.5 -17.5t84.5 -6.5q66 0 94.5 20.5t28.5 68.5q0 44 -24 66t-63 22h-126v113h126q39 0 63 22t24 67q0 47 -28 67.5t-89 20.5q-41 0 -81 -6t-75 -17v113q35 11 75 17t81 6q122 0 189.5 -53.5 t67.5 -147.5q0 -23 -7 -45.5t-19 -42t-29 -34.5t-37 -23q20 -8 37 -23.5t29 -35t19 -42t7 -44.5z" />
<glyph unicode="&#xb4;" horiz-adv-x="267" d="M187 533h-120l86 200h120z" />
<glyph unicode="&#xb5;" horiz-adv-x="567" d="M567 0q-16 -5 -38 -9t-42 -4q-31 0 -55.5 7t-40.5 22q-25 -14 -54 -21.5t-53 -7.5q-26 0 -48.5 4t-42.5 16v-274h-133v734h133v-300q0 -31 21.5 -49t58.5 -18q24 0 42 4t38 12v351h134v-333q0 -19 8 -26.5t25 -7.5q13 0 24.5 3t22.5 7v-110z" />
<glyph unicode="&#x3bc;" horiz-adv-x="567" d="M567 0q-16 -5 -38 -9t-42 -4q-31 0 -55.5 7t-40.5 22q-25 -14 -54 -21.5t-53 -7.5q-26 0 -48.5 4t-42.5 16v-274h-133v734h133v-300q0 -31 21.5 -49t58.5 -18q24 0 42 4t38 12v351h134v-333q0 -19 8 -26.5t25 -7.5q13 0 24.5 3t22.5 7v-110z" />
<glyph unicode="&#xb6;" horiz-adv-x="570" d="M503 -133h-123v400q-12 -4 -28 -7t-32 -5v-388h-123v399q-79 24 -121.5 85.5t-42.5 148.5q0 55 17 100.5t50 78t80.5 50.5t109.5 18q48 0 106 -9t107 -21v-850zM380 625q-19 6 -42 9.5t-48 3.5q-123 0 -123 -138t123 -138q25 0 48 3.5t42 9.5v250z" />
<glyph unicode="&#xb7;" horiz-adv-x="307" d="M247 267q0 -20 -7.5 -37t-20 -29.5t-30 -20t-36.5 -7.5t-36 7.5t-29.5 20t-20 29.5t-7.5 37q0 19 7.5 36t20 29.5t29.5 20t36 7.5t36.5 -7.5t30 -20t20 -29.5t7.5 -36z" />
<glyph unicode="&#xb8;" d="M257 -200h-120l86 200h120z" />
<glyph unicode="&#xb9;" horiz-adv-x="533" d="M380 0h-133v401q-87 -58 -174 -86v133q67 23 125.5 62t113.5 91l68 -1v-600z" />
<glyph unicode="&#xba;" horiz-adv-x="451" d="M305 67q0 -34 -23 -57t-57 -23q-33 0 -56.5 23t-23.5 57q0 33 23.5 56.5t56.5 23.5q34 0 57 -23.5t23 -56.5zM417 416q0 -44 -13 -80t-37.5 -62t-60.5 -40.5t-81 -14.5t-81 14.5t-60.5 40.5t-37.5 62t-13 80t13 80t37.5 62t60.5 40.5t81 14.5t81 -14.5t60.5 -40.5 t37.5 -62t13 -80zM293 416q0 91 -68 91q-32 0 -50 -23t-18 -68t18 -68t50 -23q68 0 68 91z" />
<glyph unicode="&#xbb;" d="M340 0h-133l100 233l-100 234h133l100 -234zM157 0h-134l100 233l-100 234h134l100 -234z" />
<glyph unicode="&#xbf;" horiz-adv-x="467" d="M337 533q0 -33 -23.5 -56.5t-56.5 -23.5q-34 0 -57 23.5t-23 56.5q0 34 23 57t57 23q33 0 56.5 -23t23.5 -57zM413 11q-41 -11 -80.5 -17.5t-75.5 -6.5q-52 0 -94.5 12.5t-72.5 34.5t-46.5 52.5t-16.5 66.5q0 39 12 64.5t30 43t39.5 30.5t39.5 27t30 33t12 49h133 q0 -41 -11.5 -69.5t-29 -49t-37.5 -35.5l-37 -28q-18 -14 -29.5 -29t-11.5 -36t21 -37t69 -16q33 0 72.5 6.5t83.5 17.5v-113z" />
<glyph unicode="&#xc0;" horiz-adv-x="568" d="M443 0l-48 133h-222l-48 -133h-152l239 600h144l239 -600h-152zM284 447l-69 -194h138zM216 666l-87 200h120l87 -200h-120z" />
<glyph unicode="&#xc1;" horiz-adv-x="568" d="M443 0l-48 133h-222l-48 -133h-152l239 600h144l239 -600h-152zM284 447l-69 -194h138zM351 666h-120l86 200h120z" />
<glyph unicode="&#xc2;" horiz-adv-x="568" d="M443 0l-48 133h-222l-48 -133h-152l239 600h144l239 -600h-152zM284 447l-69 -194h138zM332 666l-50 124l-50 -124h-110l87 200h147l86 -200h-110z" />
<glyph unicode="&#xc3;" horiz-adv-x="568" d="M443 0l-48 133h-222l-48 -133h-152l239 600h144l239 -600h-152zM284 447l-69 -194h138zM469 783q0 -61 -33 -95.5t-94 -34.5q-26 0 -52 12t-41 27q-16 14 -27 14q-8 0 -14 -7t-6 -16v-17h-107v17q0 61 33 95.5t94 34.5q26 0 52 -12t41 -27q16 -14 27 -14q8 0 14 7t6 16 v17h107v-17z" />
<glyph unicode="&#xc4;" horiz-adv-x="568" d="M443 0l-48 133h-222l-48 -133h-152l239 600h144l239 -600h-152zM284 447l-69 -194h138zM436 700q0 -28 -19.5 -47.5t-46.5 -19.5q-28 0 -47.5 19.5t-19.5 47.5q0 27 19.5 46.5t47.5 19.5q27 0 46.5 -19.5t19.5 -46.5zM270 700q0 -28 -19.5 -47.5t-47.5 -19.5t-47.5 19.5 t-19.5 47.5q0 27 19.5 46.5t47.5 19.5t47.5 -19.5t19.5 -46.5z" />
<glyph unicode="&#xc5;" horiz-adv-x="568" d="M443 0l-48 133h-222l-48 -133h-152l236 592q-22 17 -35 42.5t-13 55.5q0 25 9.5 47.5t26.5 39.5t39 26.5t48 9.5q25 0 47.5 -9.5t39.5 -26.5t26.5 -39.5t9.5 -47.5q0 -30 -13 -55.5t-35 -42.5l236 -592h-152zM324 690q0 17 -11.5 28.5t-28.5 11.5t-28.5 -11.5 t-11.5 -28.5t11.5 -28.5t28.5 -11.5t28.5 11.5t11.5 28.5zM284 447l-69 -194h138z" />
<glyph unicode="&#xc6;" horiz-adv-x="767" d="M387 0l-31 133h-183l-48 -133h-152l239 600h501v-113h-298l32 -130h266v-114h-237l32 -130h205v-113h-326zM284 447l-69 -194h113z" />
<glyph unicode="&#xc7;" horiz-adv-x="544" d="M517 13q-27 -9 -64 -16t-72 -9l-81 -188h-120l85 195q-117 24 -177.5 105t-60.5 200q0 70 21.5 128t63 99t103 63.5t142.5 22.5q19 0 40 -2t42.5 -5.5t41.5 -8.5t36 -10v-120q-78 26 -160 26q-94 0 -139 -47t-45 -146t45 -146t139 -47q82 0 160 26v-120z" />
<glyph unicode="&#xc8;" horiz-adv-x="533" d="M67 0v600h413v-113h-277v-130h277v-114h-277v-130h277v-113h-413zM213 666l-87 200h120l87 -200h-120z" />
<glyph unicode="&#xc9;" horiz-adv-x="533" d="M67 0v600h413v-113h-277v-130h277v-114h-277v-130h277v-113h-413zM330 666h-120l86 200h120z" />
<glyph unicode="&#xca;" horiz-adv-x="533" d="M67 0v600h413v-113h-277v-130h277v-114h-277v-130h277v-113h-413zM326 666l-50 124l-50 -124h-110l87 200h147l86 -200h-110z" />
<glyph unicode="&#xcb;" horiz-adv-x="533" d="M67 0v600h413v-113h-277v-130h277v-114h-277v-130h277v-113h-413zM423 700q0 -28 -19.5 -47.5t-46.5 -19.5q-28 0 -47.5 19.5t-19.5 47.5q0 27 19.5 46.5t47.5 19.5q27 0 46.5 -19.5t19.5 -46.5zM257 700q0 -28 -19.5 -47.5t-47.5 -19.5t-47.5 19.5t-19.5 47.5 q0 27 19.5 46.5t47.5 19.5t47.5 -19.5t19.5 -46.5z" />
<glyph unicode="&#xcc;" horiz-adv-x="273" d="M207 0h-140v600h140v-600zM80 666l-87 200h120l87 -200h-120z" />
<glyph unicode="&#xcd;" horiz-adv-x="273" d="M207 0h-140v600h140v-600zM187 666h-120l86 200h120z" />
<glyph unicode="&#xce;" horiz-adv-x="273" d="M207 0h-140v600h140v-600zM189 666l-50 124l-50 -124h-110l87 200h147l86 -200h-110z" />
<glyph unicode="&#xcf;" horiz-adv-x="273" d="M207 0h-140v600h140v-600zM286 700q0 -28 -19.5 -47.5t-46.5 -19.5q-28 0 -47.5 19.5t-19.5 47.5q0 27 19.5 46.5t47.5 19.5q27 0 46.5 -19.5t19.5 -46.5zM120 700q0 -28 -19.5 -47.5t-47.5 -19.5t-47.5 19.5t-19.5 47.5q0 27 19.5 46.5t47.5 19.5t47.5 -19.5t19.5 -46.5 z" />
<glyph unicode="&#xd0;" horiz-adv-x="647" d="M620 300q0 -143 -81.5 -221.5t-235.5 -78.5h-236v247h-67v106h67v247h236q154 0 235.5 -78.5t81.5 -221.5zM473 300q0 97 -41 142t-129 45h-103v-134h53v-106h-53v-134h103q88 0 129 45t41 142z" />
<glyph unicode="&#xd1;" horiz-adv-x="660" d="M460 0l-260 373v-373h-133v600h133l260 -373v373h133v-600h-133zM522 783q0 -61 -33 -95.5t-94 -34.5q-26 0 -52 12t-41 27q-16 14 -27 14q-8 0 -14 -7t-6 -16v-17h-107v17q0 61 33 95.5t94 34.5q26 0 52 -12t41 -27q16 -14 27 -14q8 0 14 7t6 16v17h107v-17z" />
<glyph unicode="&#xd2;" horiz-adv-x="660" d="M633 300q0 -69 -20.5 -126.5t-59 -99t-95 -64.5t-128.5 -23t-128.5 23t-95 64.5t-59 99t-20.5 126.5t20.5 126.5t59 99t95 64.5t128.5 23t128.5 -23t95 -64.5t59 -99t20.5 -126.5zM487 300q0 193 -157 193t-157 -193t157 -193t157 193zM266 666l-87 200h120l87 -200h-120 z" />
<glyph unicode="&#xd3;" horiz-adv-x="660" d="M633 300q0 -69 -20.5 -126.5t-59 -99t-95 -64.5t-128.5 -23t-128.5 23t-95 64.5t-59 99t-20.5 126.5t20.5 126.5t59 99t95 64.5t128.5 23t128.5 -23t95 -64.5t59 -99t20.5 -126.5zM487 300q0 193 -157 193t-157 -193t157 -193t157 193zM385 666h-120l86 200h120z" />
<glyph unicode="&#xd4;" horiz-adv-x="660" d="M633 300q0 -69 -20.5 -126.5t-59 -99t-95 -64.5t-128.5 -23t-128.5 23t-95 64.5t-59 99t-20.5 126.5t20.5 126.5t59 99t95 64.5t128.5 23t128.5 -23t95 -64.5t59 -99t20.5 -126.5zM487 300q0 193 -157 193t-157 -193t157 -193t157 193zM374 666l-50 124l-50 -124h-110 l87 200h147l86 -200h-110z" />
<glyph unicode="&#xd5;" horiz-adv-x="660" d="M633 300q0 -69 -20.5 -126.5t-59 -99t-95 -64.5t-128.5 -23t-128.5 23t-95 64.5t-59 99t-20.5 126.5t20.5 126.5t59 99t95 64.5t128.5 23t128.5 -23t95 -64.5t59 -99t20.5 -126.5zM487 300q0 193 -157 193t-157 -193t157 -193t157 193zM519 783q0 -61 -33 -95.5 t-94 -34.5q-26 0 -52 12t-41 27q-16 14 -27 14q-8 0 -14 -7t-6 -16v-17h-107v17q0 61 33 95.5t94 34.5q26 0 52 -12t41 -27q16 -14 27 -14q8 0 14 7t6 16v17h107v-17z" />
<glyph unicode="&#xd6;" horiz-adv-x="660" d="M633 300q0 -69 -20.5 -126.5t-59 -99t-95 -64.5t-128.5 -23t-128.5 23t-95 64.5t-59 99t-20.5 126.5t20.5 126.5t59 99t95 64.5t128.5 23t128.5 -23t95 -64.5t59 -99t20.5 -126.5zM487 300q0 193 -157 193t-157 -193t157 -193t157 193zM480 700q0 -28 -19.5 -47.5 t-46.5 -19.5q-28 0 -47.5 19.5t-19.5 47.5q0 27 19.5 46.5t47.5 19.5q27 0 46.5 -19.5t19.5 -46.5zM314 700q0 -28 -19.5 -47.5t-47.5 -19.5t-47.5 19.5t-19.5 47.5q0 27 19.5 46.5t47.5 19.5t47.5 -19.5t19.5 -46.5z" />
<glyph unicode="&#xd7;" d="M351 80l-111 111l-111 -111l-75 76l111 111l-111 111l75 75l111 -111l111 111l75 -75l-111 -111l111 -111z" />
<glyph unicode="&#xd8;" horiz-adv-x="660" d="M633 300q0 -69 -20.5 -126.5t-59 -99t-95 -64.5t-128.5 -23t-128.5 23t-95 64.5t-59 99t-20.5 126.5t20.5 126.5t59 99t95 64.5t128.5 23t128.5 -23t95 -64.5t59 -99t20.5 -126.5zM487 300q0 83 -30 131l-161 -322q8 -1 16.5 -1.5t17.5 -0.5q157 0 157 193zM361 491 q-7 2 -15 2h-16q-157 0 -157 -193q0 -80 28 -128z" />
<glyph unicode="&#xd9;" horiz-adv-x="647" d="M587 233q0 -56 -17.5 -101.5t-51 -77.5t-83 -49.5t-112.5 -17.5t-112 17.5t-82.5 49.5t-51 77.5t-17.5 101.5v367h133v-367q0 -63 33.5 -94.5t96.5 -31.5q130 0 130 126v367h134v-367zM260 666l-87 200h120l87 -200h-120z" />
<glyph unicode="&#xda;" horiz-adv-x="647" d="M587 233q0 -56 -17.5 -101.5t-51 -77.5t-83 -49.5t-112.5 -17.5t-112 17.5t-82.5 49.5t-51 77.5t-17.5 101.5v367h133v-367q0 -63 33.5 -94.5t96.5 -31.5q130 0 130 126v367h134v-367zM374 666h-120l86 200h120z" />
<glyph unicode="&#xdb;" horiz-adv-x="647" d="M587 233q0 -56 -17.5 -101.5t-51 -77.5t-83 -49.5t-112.5 -17.5t-112 17.5t-82.5 49.5t-51 77.5t-17.5 101.5v367h133v-367q0 -63 33.5 -94.5t96.5 -31.5q130 0 130 126v367h134v-367zM370 666l-50 124l-50 -124h-110l87 200h147l86 -200h-110z" />
<glyph unicode="&#xdc;" horiz-adv-x="647" d="M587 233q0 -56 -17.5 -101.5t-51 -77.5t-83 -49.5t-112.5 -17.5t-112 17.5t-82.5 49.5t-51 77.5t-17.5 101.5v367h133v-367q0 -63 33.5 -94.5t96.5 -31.5q130 0 130 126v367h134v-367zM475 700q0 -28 -19.5 -47.5t-46.5 -19.5q-28 0 -47.5 19.5t-19.5 47.5 q0 27 19.5 46.5t47.5 19.5q27 0 46.5 -19.5t19.5 -46.5zM309 700q0 -28 -19.5 -47.5t-47.5 -19.5t-47.5 19.5t-19.5 47.5q0 27 19.5 46.5t47.5 19.5t47.5 -19.5t19.5 -46.5z" />
<glyph unicode="&#xdd;" horiz-adv-x="504" d="M319 279v-279h-134v279l-238 321h162l143 -200l143 200h162zM311 666h-120l86 200h120z" />
<glyph unicode="&#xde;" horiz-adv-x="520" d="M520 300q0 -94 -60 -145.5t-167 -51.5h-93v-103h-133v600h133v-103h93q106 0 166.5 -51.5t60.5 -145.5zM380 300q0 42 -22.5 62.5t-64.5 20.5h-93v-166h93q42 0 64.5 20.5t22.5 62.5z" />
<glyph unicode="&#xdf;" horiz-adv-x="647" d="M613 147q0 -30 -13.5 -59t-39.5 -51.5t-65.5 -36t-91.5 -13.5q-45 0 -83.5 7t-79.5 18v113q44 -12 86 -18.5t77 -6.5q44 0 59.5 11.5t15.5 25.5t-12.5 23.5t-42.5 9.5q-91 0 -140.5 36.5t-49.5 113.5q0 31 9.5 50.5t23.5 33t30.5 25t30.5 25.5t23.5 34t9.5 52 q0 51 -21.5 72t-58.5 21t-58.5 -18t-21.5 -48v-567h-133v567q0 41 15.5 74.5t43.5 57t67 36t87 12.5t87 -13t67 -39t43.5 -65t15.5 -90q0 -63 -19.5 -97t-43 -52.5t-43 -30t-19.5 -30.5q0 -14 13 -23.5t42 -9.5q91 0 140.5 -36.5t49.5 -113.5z" />
<glyph unicode="&#xe0;" horiz-adv-x="547" d="M547 0q-16 -5 -38 -9t-42 -4q-35 0 -61.5 9.5t-42.5 28.5q-29 -17 -63.5 -27.5t-72.5 -10.5q-46 0 -82 11.5t-61 31.5t-38 47.5t-13 59.5t13 59.5t38 47.5t61 31.5t82 11.5h106v13q0 30 -24 48.5t-72 18.5q-34 0 -73 -6.5t-84 -17.5v113q41 10 80.5 17t76.5 7 q52 0 94.5 -12t72.5 -35t46.5 -56.5t16.5 -76.5v-166q0 -19 8 -26.5t25 -7.5q13 0 24.5 3t22.5 7v-110zM333 187h-106q-31 0 -45.5 -13.5t-14.5 -36.5q0 -50 60 -50q26 0 54 7.5t52 21.5v71zM206 533l-87 200h120l87 -200h-120z" />
<glyph unicode="&#xe1;" horiz-adv-x="547" d="M547 0q-16 -5 -38 -9t-42 -4q-35 0 -61.5 9.5t-42.5 28.5q-29 -17 -63.5 -27.5t-72.5 -10.5q-46 0 -82 11.5t-61 31.5t-38 47.5t-13 59.5t13 59.5t38 47.5t61 31.5t82 11.5h106v13q0 30 -24 48.5t-72 18.5q-34 0 -73 -6.5t-84 -17.5v113q41 10 80.5 17t76.5 7 q52 0 94.5 -12t72.5 -35t46.5 -56.5t16.5 -76.5v-166q0 -19 8 -26.5t25 -7.5q13 0 24.5 3t22.5 7v-110zM333 187h-106q-31 0 -45.5 -13.5t-14.5 -36.5q0 -50 60 -50q26 0 54 7.5t52 21.5v71zM326 533h-120l86 200h120z" />
<glyph unicode="&#xe2;" horiz-adv-x="547" d="M547 0q-16 -5 -38 -9t-42 -4q-35 0 -61.5 9.5t-42.5 28.5q-29 -17 -63.5 -27.5t-72.5 -10.5q-46 0 -82 11.5t-61 31.5t-38 47.5t-13 59.5t13 59.5t38 47.5t61 31.5t82 11.5h106v13q0 30 -24 48.5t-72 18.5q-34 0 -73 -6.5t-84 -17.5v113q41 10 80.5 17t76.5 7 q52 0 94.5 -12t72.5 -35t46.5 -56.5t16.5 -76.5v-166q0 -19 8 -26.5t25 -7.5q13 0 24.5 3t22.5 7v-110zM333 187h-106q-31 0 -45.5 -13.5t-14.5 -36.5q0 -50 60 -50q26 0 54 7.5t52 21.5v71zM302 533l-50 124l-50 -124h-110l87 200h147l86 -200h-110z" />
<glyph unicode="&#xe3;" horiz-adv-x="547" d="M547 0q-16 -5 -38 -9t-42 -4q-35 0 -61.5 9.5t-42.5 28.5q-29 -17 -63.5 -27.5t-72.5 -10.5q-46 0 -82 11.5t-61 31.5t-38 47.5t-13 59.5t13 59.5t38 47.5t61 31.5t82 11.5h106v13q0 30 -24 48.5t-72 18.5q-34 0 -73 -6.5t-84 -17.5v113q41 10 80.5 17t76.5 7 q52 0 94.5 -12t72.5 -35t46.5 -56.5t16.5 -76.5v-166q0 -19 8 -26.5t25 -7.5q13 0 24.5 3t22.5 7v-110zM333 187h-106q-31 0 -45.5 -13.5t-14.5 -36.5q0 -50 60 -50q26 0 54 7.5t52 21.5v71zM452 650q0 -61 -33 -95.5t-94 -34.5q-26 0 -52 12t-41 27q-16 14 -27 14 q-8 0 -14 -7t-6 -16v-17h-107v17q0 61 33 95.5t94 34.5q26 0 52 -12t41 -27q16 -14 27 -14q8 0 14 7t6 16v17h107v-17z" />
<glyph unicode="&#xe4;" horiz-adv-x="547" d="M547 0q-16 -5 -38 -9t-42 -4q-35 0 -61.5 9.5t-42.5 28.5q-29 -17 -63.5 -27.5t-72.5 -10.5q-46 0 -82 11.5t-61 31.5t-38 47.5t-13 59.5t13 59.5t38 47.5t61 31.5t82 11.5h106v13q0 30 -24 48.5t-72 18.5q-34 0 -73 -6.5t-84 -17.5v113q41 10 80.5 17t76.5 7 q52 0 94.5 -12t72.5 -35t46.5 -56.5t16.5 -76.5v-166q0 -19 8 -26.5t25 -7.5q13 0 24.5 3t22.5 7v-110zM333 187h-106q-31 0 -45.5 -13.5t-14.5 -36.5q0 -50 60 -50q26 0 54 7.5t52 21.5v71zM419 633q0 -28 -19.5 -47.5t-46.5 -19.5q-28 0 -47.5 19.5t-19.5 47.5 q0 27 19.5 46.5t47.5 19.5q27 0 46.5 -19.5t19.5 -46.5zM253 633q0 -28 -19.5 -47.5t-47.5 -19.5t-47.5 19.5t-19.5 47.5q0 27 19.5 46.5t47.5 19.5t47.5 -19.5t19.5 -46.5z" />
<glyph unicode="&#xe5;" horiz-adv-x="547" d="M547 0q-16 -5 -38 -9t-42 -4q-35 0 -61.5 9.5t-42.5 28.5q-29 -17 -63.5 -27.5t-72.5 -10.5q-46 0 -82 11.5t-61 31.5t-38 47.5t-13 59.5t13 59.5t38 47.5t61 31.5t82 11.5h106v13q0 30 -24 48.5t-72 18.5q-34 0 -73 -6.5t-84 -17.5v113q41 10 80.5 17t76.5 7 q52 0 94.5 -12t72.5 -35t46.5 -56.5t16.5 -76.5v-166q0 -19 8 -26.5t25 -7.5q13 0 24.5 3t22.5 7v-110zM333 187h-106q-31 0 -45.5 -13.5t-14.5 -36.5q0 -50 60 -50q26 0 54 7.5t52 21.5v71zM395 623q0 -26 -9.5 -48t-26.5 -39t-39.5 -26.5t-47.5 -9.5q-26 0 -48 9.5 t-39 26.5t-26.5 39t-9.5 48q0 25 9.5 48t26.5 39.5t39 26.5t48 10q25 0 47.5 -10t39.5 -26.5t26.5 -39.5t9.5 -48zM312 623q0 17 -11.5 28.5t-28.5 11.5t-28.5 -11.5t-11.5 -28.5t11.5 -28.5t28.5 -11.5t28.5 11.5t11.5 28.5z" />
<glyph unicode="&#xe6;" horiz-adv-x="815" d="M782 233q0 -24 -3 -46h-312q9 -46 45.5 -66.5t89.5 -20.5q38 0 73 7t67 18v-113q-31 -11 -68 -18t-72 -7q-119 0 -190 57q-46 -29 -89 -43t-96 -14q-46 0 -82 11.5t-61 31.5t-38 47.5t-13 59.5t13 59.5t38 47.5t61 31.5t82 11.5h106v13q0 30 -24 48.5t-72 18.5 q-34 0 -73 -6.5t-84 -17.5v113q41 10 80.5 17t76.5 7q115 0 174 -61q58 61 154 61q52 0 92.5 -18t68.5 -50t42 -78t14 -101zM651 293q-8 42 -32.5 62t-59.5 20t-60 -22t-30 -60h182zM350 125q-6 14 -10 29.5t-7 32.5h-106q-31 0 -45.5 -13.5t-14.5 -36.5q0 -50 60 -50 q32 0 62.5 10t60.5 28z" />
<glyph unicode="&#xe7;" horiz-adv-x="460" d="M420 8q-17 -5 -38 -10t-43 -8l-82 -190h-120l84 194q-91 18 -139.5 81t-48.5 158q0 57 17.5 102.5t50.5 77.5t81.5 49.5t110.5 17.5q30 0 65.5 -6.5t61.5 -14.5v-114q-31 11 -62 16.5t-65 5.5q-57 0 -88.5 -31t-31.5 -103q0 -71 31.5 -102t88.5 -31q34 0 65 5.5t62 15.5 v-113z" />
<glyph unicode="&#xe8;" horiz-adv-x="520" d="M487 233q0 -24 -3 -46h-313q9 -46 45.5 -66.5t90.5 -20.5q38 0 73 7t67 18v-113q-32 -11 -68.5 -18t-71.5 -7q-65 0 -115.5 17t-86 48.5t-54 77.5t-18.5 103q0 55 16 101t46 78t72.5 50t95.5 18q54 0 95.5 -18t70 -50t43.5 -78t15 -101zM355 293q-7 42 -32 62t-60 20 t-59.5 -22t-30.5 -60h182zM200 533l-87 200h120l87 -200h-120z" />
<glyph unicode="&#xe9;" horiz-adv-x="520" d="M487 233q0 -24 -3 -46h-313q9 -46 45.5 -66.5t90.5 -20.5q38 0 73 7t67 18v-113q-32 -11 -68.5 -18t-71.5 -7q-65 0 -115.5 17t-86 48.5t-54 77.5t-18.5 103q0 55 16 101t46 78t72.5 50t95.5 18q54 0 95.5 -18t70 -50t43.5 -78t15 -101zM355 293q-7 42 -32 62t-60 20 t-59.5 -22t-30.5 -60h182zM318 533h-120l86 200h120z" />
<glyph unicode="&#xea;" horiz-adv-x="520" d="M487 233q0 -24 -3 -46h-313q9 -46 45.5 -66.5t90.5 -20.5q38 0 73 7t67 18v-113q-32 -11 -68.5 -18t-71.5 -7q-65 0 -115.5 17t-86 48.5t-54 77.5t-18.5 103q0 55 16 101t46 78t72.5 50t95.5 18q54 0 95.5 -18t70 -50t43.5 -78t15 -101zM355 293q-7 42 -32 62t-60 20 t-59.5 -22t-30.5 -60h182zM308 533l-50 124l-50 -124h-110l87 200h147l86 -200h-110z" />
<glyph unicode="&#xeb;" horiz-adv-x="520" d="M487 233q0 -24 -3 -46h-313q9 -46 45.5 -66.5t90.5 -20.5q38 0 73 7t67 18v-113q-32 -11 -68.5 -18t-71.5 -7q-65 0 -115.5 17t-86 48.5t-54 77.5t-18.5 103q0 55 16 101t46 78t72.5 50t95.5 18q54 0 95.5 -18t70 -50t43.5 -78t15 -101zM355 293q-7 42 -32 62t-60 20 t-59.5 -22t-30.5 -60h182zM413 633q0 -28 -19.5 -47.5t-46.5 -19.5q-28 0 -47.5 19.5t-19.5 47.5q0 27 19.5 46.5t47.5 19.5q27 0 46.5 -19.5t19.5 -46.5zM247 633q0 -28 -19.5 -47.5t-47.5 -19.5t-47.5 19.5t-19.5 47.5q0 27 19.5 46.5t47.5 19.5t47.5 -19.5t19.5 -46.5z " />
<glyph unicode="&#xec;" horiz-adv-x="267" d="M80 533l-87 200h120l87 -200h-120zM200 0h-133v467h133v-467z" />
<glyph unicode="&#xed;" horiz-adv-x="267" d="M187 533h-120l86 200h120zM200 0h-133v467h133v-467z" />
<glyph unicode="&#xee;" horiz-adv-x="267" d="M183 533l-50 124l-50 -124h-110l87 200h147l86 -200h-110zM200 0h-133v467h133v-467z" />
<glyph unicode="&#xef;" horiz-adv-x="267" d="M283 633q0 -28 -19.5 -47.5t-46.5 -19.5q-28 0 -47.5 19.5t-19.5 47.5q0 27 19.5 46.5t47.5 19.5q27 0 46.5 -19.5t19.5 -46.5zM117 633q0 -28 -19.5 -47.5t-47.5 -19.5t-47.5 19.5t-19.5 47.5q0 27 19.5 46.5t47.5 19.5t47.5 -19.5t19.5 -46.5zM200 0h-133v467h133v-467 z" />
<glyph unicode="&#xf0;" horiz-adv-x="547" d="M513 233q0 -54 -16 -99.5t-47 -78t-75.5 -50.5t-101.5 -18t-101.5 18t-75 50.5t-47 78t-16.5 99.5q0 55 15 100.5t44 78t70 50.5t94 18q47 0 89 -21q-8 20 -18.5 40.5t-23.5 40.5h-163v107h78q-21 23 -43 44l-45 42h157q42 -43 77 -86h149v-107h-78q38 -72 58 -148 t20 -159zM373 233q0 66 -26 100t-74 34t-74 -34t-26 -100t26 -99.5t74 -33.5t74 33.5t26 99.5z" />
<glyph unicode="&#xf1;" horiz-adv-x="567" d="M463 650q0 -61 -33 -95.5t-93 -34.5q-27 0 -53 12t-41 27q-14 14 -26 14q-8 0 -14 -7t-6 -16v-17h-107v17q0 61 33 95.5t94 34.5q26 0 52 -12t41 -27q14 -14 27 -14q8 0 14 7t6 16v17h106v-17zM373 0v300q0 31 -21.5 49t-58.5 18q-21 0 -42 -2.5t-38 -7.5v-357h-133v450 q49 13 107.5 21.5t105.5 8.5q48 0 87 -12.5t67.5 -36t44 -57t15.5 -74.5v-300h-134z" />
<glyph unicode="&#xf2;" horiz-adv-x="547" d="M513 233q0 -54 -16 -99.5t-47 -78t-75.5 -50.5t-101.5 -18t-101.5 18t-75 50.5t-47 78t-16.5 99.5q0 55 16.5 100.5t47 78t75 50.5t101.5 18t101.5 -18t75.5 -50.5t47 -78t16 -100.5zM373 233q0 66 -26 100t-74 34t-74 -34t-26 -100t26 -99.5t74 -33.5t74 33.5t26 99.5z M212 533l-87 200h120l87 -200h-120z" />
<glyph unicode="&#xf3;" horiz-adv-x="547" d="M513 233q0 -54 -16 -99.5t-47 -78t-75.5 -50.5t-101.5 -18t-101.5 18t-75 50.5t-47 78t-16.5 99.5q0 55 16.5 100.5t47 78t75 50.5t101.5 18t101.5 -18t75.5 -50.5t47 -78t16 -100.5zM373 233q0 66 -26 100t-74 34t-74 -34t-26 -100t26 -99.5t74 -33.5t74 33.5t26 99.5z M332 533h-120l86 200h120z" />
<glyph unicode="&#xf4;" horiz-adv-x="547" d="M513 233q0 -54 -16 -99.5t-47 -78t-75.5 -50.5t-101.5 -18t-101.5 18t-75 50.5t-47 78t-16.5 99.5q0 55 16.5 100.5t47 78t75 50.5t101.5 18t101.5 -18t75.5 -50.5t47 -78t16 -100.5zM373 233q0 66 -26 100t-74 34t-74 -34t-26 -100t26 -99.5t74 -33.5t74 33.5t26 99.5z M318 533l-50 124l-50 -124h-110l87 200h147l86 -200h-110z" />
<glyph unicode="&#xf5;" horiz-adv-x="547" d="M513 233q0 -54 -16 -99.5t-47 -78t-75.5 -50.5t-101.5 -18t-101.5 18t-75 50.5t-47 78t-16.5 99.5q0 55 16.5 100.5t47 78t75 50.5t101.5 18t101.5 -18t75.5 -50.5t47 -78t16 -100.5zM373 233q0 66 -26 100t-74 34t-74 -34t-26 -100t26 -99.5t74 -33.5t74 33.5t26 99.5z M462 650q0 -61 -33 -95.5t-94 -34.5q-26 0 -52 12t-41 27q-16 14 -27 14q-8 0 -14 -7t-6 -16v-17h-107v17q0 61 33 95.5t94 34.5q26 0 52 -12t41 -27q16 -14 27 -14q8 0 14 7t6 16v17h107v-17z" />
<glyph unicode="&#xf6;" horiz-adv-x="547" d="M513 233q0 -54 -16 -99.5t-47 -78t-75.5 -50.5t-101.5 -18t-101.5 18t-75 50.5t-47 78t-16.5 99.5q0 55 16.5 100.5t47 78t75 50.5t101.5 18t101.5 -18t75.5 -50.5t47 -78t16 -100.5zM373 233q0 66 -26 100t-74 34t-74 -34t-26 -100t26 -99.5t74 -33.5t74 33.5t26 99.5z M421 633q0 -28 -19.5 -47.5t-46.5 -19.5q-28 0 -47.5 19.5t-19.5 47.5q0 27 19.5 46.5t47.5 19.5q27 0 46.5 -19.5t19.5 -46.5zM255 633q0 -28 -19.5 -47.5t-47.5 -19.5t-47.5 19.5t-19.5 47.5q0 27 19.5 46.5t47.5 19.5t47.5 -19.5t19.5 -46.5z" />
<glyph unicode="&#xf7;" d="M53 213v107h374v-107h-374zM317 417q0 -32 -22.5 -54.5t-54.5 -22.5t-54.5 22.5t-22.5 54.5t22.5 54t54.5 22t54.5 -22t22.5 -54zM317 117q0 -32 -22.5 -54.5t-54.5 -22.5t-54.5 22.5t-22.5 54.5t22.5 54t54.5 22t54.5 -22t22.5 -54z" />
<glyph unicode="&#xf8;" horiz-adv-x="547" d="M513 233q0 -54 -16 -99.5t-47 -78t-75.5 -50.5t-101.5 -18t-101.5 18t-75 50.5t-47 78t-16.5 99.5q0 55 16.5 100.5t47 78t75 50.5t101.5 18t101.5 -18t75.5 -50.5t47 -78t16 -100.5zM386 233q0 28 -5 50t-13 39l-116 -230q5 -1 10 -1h11q54 0 83.5 36t29.5 106zM294 374 q-5 1 -10 1.5t-11 0.5q-54 0 -83 -36t-29 -107q0 -55 18 -89z" />
<glyph unicode="&#xf9;" horiz-adv-x="567" d="M567 0q-16 -5 -38 -9t-42 -4q-63 0 -96 29q-27 -14 -56 -21.5t-62 -7.5q-48 0 -87 12.5t-67 36t-43.5 57t-15.5 74.5v300h133v-300q0 -31 21.5 -49t58.5 -18q24 0 42 4t38 12v351h134v-333q0 -19 8 -26.5t25 -7.5q13 0 24.5 3t22.5 7v-110zM213 533l-87 200h120l87 -200 h-120z" />
<glyph unicode="&#xfa;" horiz-adv-x="567" d="M567 0q-16 -5 -38 -9t-42 -4q-63 0 -96 29q-27 -14 -56 -21.5t-62 -7.5q-48 0 -87 12.5t-67 36t-43.5 57t-15.5 74.5v300h133v-300q0 -31 21.5 -49t58.5 -18q24 0 42 4t38 12v351h134v-333q0 -19 8 -26.5t25 -7.5q13 0 24.5 3t22.5 7v-110zM326 533h-120l86 200h120z" />
<glyph unicode="&#xfb;" horiz-adv-x="567" d="M567 0q-16 -5 -38 -9t-42 -4q-63 0 -96 29q-27 -14 -56 -21.5t-62 -7.5q-48 0 -87 12.5t-67 36t-43.5 57t-15.5 74.5v300h133v-300q0 -31 21.5 -49t58.5 -18q24 0 42 4t38 12v351h134v-333q0 -19 8 -26.5t25 -7.5q13 0 24.5 3t22.5 7v-110zM318 533l-50 124l-50 -124 h-110l87 200h147l86 -200h-110z" />
<glyph unicode="&#xfc;" horiz-adv-x="567" d="M567 0q-16 -5 -38 -9t-42 -4q-63 0 -96 29q-27 -14 -56 -21.5t-62 -7.5q-48 0 -87 12.5t-67 36t-43.5 57t-15.5 74.5v300h133v-300q0 -31 21.5 -49t58.5 -18q24 0 42 4t38 12v351h134v-333q0 -19 8 -26.5t25 -7.5q13 0 24.5 3t22.5 7v-110zM424 633q0 -28 -19.5 -47.5 t-46.5 -19.5q-28 0 -47.5 19.5t-19.5 47.5q0 27 19.5 46.5t47.5 19.5q27 0 46.5 -19.5t19.5 -46.5zM258 633q0 -28 -19.5 -47.5t-47.5 -19.5t-47.5 19.5t-19.5 47.5q0 27 19.5 46.5t47.5 19.5t47.5 -19.5t19.5 -46.5z" />
<glyph unicode="&#xfd;" horiz-adv-x="500" d="M195 -267h-139l124 298l-180 436h147l103 -286l103 286h147zM306 533h-120l86 200h120z" />
<glyph unicode="&#xfe;" horiz-adv-x="553" d="M520 233q0 -54 -16.5 -99.5t-47 -78t-75 -50.5t-101.5 -18q-20 0 -41 4t-39 9v-267h-133v1000h133v-266q18 5 39 9t41 4q57 0 101.5 -18t75 -50.5t47 -78t16.5 -100.5zM380 233q0 66 -26 100t-74 34q-22 0 -42.5 -2.5t-37.5 -7.5v-248q17 -4 37.5 -6.5t42.5 -2.5 q48 0 74 33.5t26 99.5z" />
<glyph unicode="&#xff;" horiz-adv-x="500" d="M195 -267h-139l124 298l-180 436h147l103 -286l103 286h147zM398 633q0 -28 -19.5 -47.5t-46.5 -19.5q-28 0 -47.5 19.5t-19.5 47.5q0 27 19.5 46.5t47.5 19.5q27 0 46.5 -19.5t19.5 -46.5zM232 633q0 -28 -19.5 -47.5t-47.5 -19.5t-47.5 19.5t-19.5 47.5q0 27 19.5 46.5 t47.5 19.5t47.5 -19.5t19.5 -46.5z" />
<glyph unicode="&#x131;" horiz-adv-x="267" d="M200 0h-133v467h133v-467z" />
<glyph unicode="&#x152;" horiz-adv-x="913" d="M430 0q-23 -7 -48 -10t-52 -3q-72 0 -128.5 23t-95 64.5t-59 99t-20.5 126.5t20.5 126.5t59 99t95 64.5t128.5 23q27 0 52 -3t48 -10h430v-113h-276q36 -57 46 -130h230v-114h-230q-10 -73 -46 -130h276v-113h-430zM487 300q0 193 -157 193t-157 -193t157 -193t157 193z " />
<glyph unicode="&#x153;" horiz-adv-x="860" d="M827 233q0 -24 -3 -46h-313q9 -46 45.5 -66.5t90.5 -20.5q38 0 73 7t67 18v-113q-32 -11 -66.5 -18t-69.5 -7q-74 0 -124 19.5t-84 58.5q-24 -39 -70 -58.5t-106 -19.5q-55 0 -98.5 18t-73.5 50.5t-46 78t-16 99.5q0 55 16 100.5t46 78t73.5 50.5t98.5 18q66 0 106.5 -19 t69.5 -60q25 38 67.5 58.5t98.5 20.5q52 0 93 -18t68.5 -50t42 -78t14.5 -101zM695 293q-7 42 -32 62t-60 20t-59.5 -22t-30.5 -60h182zM373 233q0 66 -26 100t-74 34t-74 -34t-26 -100t26 -99.5t74 -33.5t74 33.5t26 99.5z" />
<glyph unicode="&#x178;" horiz-adv-x="504" d="M319 279v-279h-134v279l-238 321h162l143 -200l143 200h162zM401 700q0 -28 -19.5 -47.5t-46.5 -19.5q-28 0 -47.5 19.5t-19.5 47.5q0 27 19.5 46.5t47.5 19.5q27 0 46.5 -19.5t19.5 -46.5zM235 700q0 -28 -19.5 -47.5t-47.5 -19.5t-47.5 19.5t-19.5 47.5q0 27 19.5 46.5 t47.5 19.5t47.5 -19.5t19.5 -46.5z" />
<glyph unicode="&#x2c6;" horiz-adv-x="267" d="M183 533l-50 124l-50 -124h-110l87 200h147l86 -200h-110z" />
<glyph unicode="&#x2da;" d="M363 623q0 -26 -9.5 -48t-26.5 -39t-39.5 -26.5t-47.5 -9.5q-26 0 -48 9.5t-39 26.5t-26.5 39t-9.5 48q0 25 9.5 48t26.5 39.5t39 26.5t48 10q25 0 47.5 -10t39.5 -26.5t26.5 -39.5t9.5 -48zM280 623q0 17 -11.5 28.5t-28.5 11.5t-28.5 -11.5t-11.5 -28.5t11.5 -28.5 t28.5 -11.5t28.5 11.5t11.5 28.5z" />
<glyph unicode="&#x2dc;" d="M427 650q0 -61 -33 -95.5t-94 -34.5q-26 0 -52 12t-41 27q-16 14 -27 14q-8 0 -14 -7t-6 -16v-17h-107v17q0 61 33 95.5t94 34.5q26 0 52 -12t41 -27q16 -14 27 -14q8 0 14 7t6 16v17h107v-17z" />
<glyph unicode="&#x2000;" horiz-adv-x="433" />
<glyph unicode="&#x2001;" horiz-adv-x="866" />
<glyph unicode="&#x2002;" horiz-adv-x="433" />
<glyph unicode="&#x2003;" horiz-adv-x="866" />
<glyph unicode="&#x2004;" horiz-adv-x="288" />
<glyph unicode="&#x2005;" horiz-adv-x="216" />
<glyph unicode="&#x2006;" horiz-adv-x="144" />
<glyph unicode="&#x2007;" horiz-adv-x="144" />
<glyph unicode="&#x2008;" horiz-adv-x="108" />
<glyph unicode="&#x2009;" horiz-adv-x="173" />
<glyph unicode="&#x200a;" horiz-adv-x="48" />
<glyph unicode="&#x2010;" d="M53 213v107h374v-107h-374z" />
<glyph unicode="&#x2011;" d="M53 213v107h374v-107h-374z" />
<glyph unicode="&#x2013;" horiz-adv-x="960" d="M53 180v107h854v-107h-854z" />
<glyph unicode="&#x2014;" horiz-adv-x="1440" d="M53 180v107h1334v-107h-1334z" />
<glyph unicode="&#x2018;" horiz-adv-x="307" d="M147 367q-34 57 -54 115t-20 118q0 33 23.5 56.5t56.5 23.5q34 0 57 -23.5t23 -56.5q0 -28 -16 -48.5t-42 -28.5q9 -40 25.5 -79t39.5 -77h-93z" />
<glyph unicode="&#x2019;" horiz-adv-x="307" d="M233 600q0 -60 -19.5 -118t-53.5 -115h-93q23 38 39.5 77t24.5 79q-25 8 -41.5 28.5t-16.5 48.5q0 33 23.5 56.5t56.5 23.5q34 0 57 -23.5t23 -56.5z" />
<glyph unicode="&#x201a;" horiz-adv-x="307" d="M233 67q0 -60 -19.5 -118.5t-53.5 -115.5h-93q23 38 39.5 77t24.5 80q-25 7 -41.5 28t-16.5 49q0 33 23.5 56.5t56.5 23.5q34 0 57 -23.5t23 -56.5z" />
<glyph unicode="&#x201c;" horiz-adv-x="507" d="M147 367q-34 57 -54 115t-20 118q0 33 23.5 56.5t56.5 23.5q34 0 57 -23.5t23 -56.5q0 -28 -16 -48.5t-42 -28.5q9 -40 25.5 -79t39.5 -77h-93zM347 367q-34 57 -54 115t-20 118q0 33 23.5 56.5t56.5 23.5q34 0 57 -23.5t23 -56.5q0 -28 -16 -48.5t-42 -28.5 q9 -40 25.5 -79t39.5 -77h-93z" />
<glyph unicode="&#x201d;" horiz-adv-x="507" d="M233 600q0 -60 -19.5 -118t-53.5 -115h-93q23 38 39.5 77t24.5 79q-25 8 -41.5 28.5t-16.5 48.5q0 33 23.5 56.5t56.5 23.5q34 0 57 -23.5t23 -56.5zM433 600q0 -60 -19.5 -118t-53.5 -115h-93q23 38 39.5 77t24.5 79q-25 8 -41.5 28.5t-16.5 48.5q0 33 23.5 56.5 t56.5 23.5q34 0 57 -23.5t23 -56.5z" />
<glyph unicode="&#x201e;" horiz-adv-x="507" d="M233 67q0 -60 -19.5 -118.5t-53.5 -115.5h-93q23 38 39.5 77t24.5 80q-25 7 -41.5 28t-16.5 49q0 33 23.5 56.5t56.5 23.5q34 0 57 -23.5t23 -56.5zM433 67q0 -60 -19.5 -118.5t-53.5 -115.5h-93q23 38 39.5 77t24.5 80q-25 7 -41.5 28t-16.5 49q0 33 23.5 56.5 t56.5 23.5q34 0 57 -23.5t23 -56.5z" />
<glyph unicode="&#x2022;" horiz-adv-x="420" d="M367 267q0 -33 -12.5 -61.5t-33.5 -49.5t-49.5 -33.5t-61.5 -12.5t-61.5 12.5t-49.5 33.5t-33.5 49.5t-12.5 61.5q0 32 12.5 60.5t33.5 49.5t49.5 33.5t61.5 12.5t61.5 -12.5t49.5 -33.5t33.5 -49.5t12.5 -60.5z" />
<glyph unicode="&#x2026;" horiz-adv-x="920" d="M233 67q0 -34 -23 -57t-57 -23q-33 0 -56.5 23t-23.5 57q0 33 23.5 56.5t56.5 23.5q34 0 57 -23.5t23 -56.5zM847 67q0 -34 -23.5 -57t-56.5 -23q-34 0 -57 23t-23 57q0 33 23 56.5t57 23.5q33 0 56.5 -23.5t23.5 -56.5zM540 67q0 -34 -23.5 -57t-56.5 -23t-56.5 23 t-23.5 57q0 33 23.5 56.5t56.5 23.5t56.5 -23.5t23.5 -56.5z" />
<glyph unicode="&#x202f;" horiz-adv-x="173" />
<glyph unicode="&#x2039;" d="M273 0l-201 233l201 234h152l-202 -234l202 -233h-152z" />
<glyph unicode="&#x203a;" d="M207 0h-152l202 233l-202 234h152l201 -234z" />
<glyph unicode="&#x205f;" horiz-adv-x="216" />
<glyph unicode="&#x20ac;" horiz-adv-x="544" d="M517 13q-16 -5 -36 -10t-41.5 -8.5t-42.5 -5.5t-40 -2q-81 0 -142.5 22.5t-103 63.5t-63 98.5t-21.5 128.5q0 70 21.5 128t63 99t103 63.5t142.5 22.5q19 0 40 -2t42.5 -5.5t41.5 -8.5t36 -10v-120q-78 26 -160 26q-112 0 -155 -70h231v-103h-259q-1 -5 -1 -10v-10v-10 q0 -5 1 -10h259v-103h-231q43 -70 155 -70q82 0 160 26v-120z" />
<glyph unicode="&#x2122;" horiz-adv-x="640" d="M526 300l-13 177l-51 -65h-40l-51 65l-13 -177h-88l29 300h80l63 -90l63 90h79l29 -300h-87zM182 529v-229h-87v229h-82v71h250v-71h-81z" />
</font>
</defs>
</svg>
